<?xml version="1.0" encoding="utf-8"?>
<!-- Generator: Adobe Illustrator 22.1.0, SVG Export Plug-In . SVG Version: 6.00 Build 0)  -->
<svg version="1.1" id="Layer_1" xmlns="http://www.w3.org/2000/svg" xmlns:xlink="http://www.w3.org/1999/xlink" x="0px" y="0px"
	 viewBox="0 0 512 512" style="enable-background:new 0 0 512 512;" xml:space="preserve">
<style type="text/css">
	.st0{fill:#FDC63A;}
	.st1{fill:#EE6823;}
	.st2{fill:#F7971D;}
	.st3{fill:#16AFBE;}
	.st4{fill:#22BECE;}
	.st5{fill:#FFFFFF;}
	.st6{fill:#2C5871;}
</style>
<g>
	<g>
		<g>
			<g>
				<polygon class="st0" points="139.6,88.4 114,95.3 313.2,119.1 333.1,108.3 				"/>
				<g>
					<polygon class="st1" points="100.9,98.9 203.7,181.1 214.4,172.9 106.4,97.4 					"/>
					<polygon class="st2" points="114,95.3 106.4,97.4 214.4,172.9 313.2,119.1 					"/>
				</g>
			</g>
			<polygon class="st1" points="82.7,238.8 42.6,222.9 2.6,229.5 52.1,258.5 			"/>
			<path class="st3" d="M454.1,122.9c10.3-9.3,33.7-35.4,27.9-48L102.5,249.4l8.7,18.8C111.2,268.2,385.2,185.5,454.1,122.9z"/>
			<path class="st4" d="M427.4,64.8C335,76.4,93.9,230.6,93.9,230.6l8.6,18.8L482,74.9C476.2,62.3,441.1,63.1,427.4,64.8z"/>
			<path class="st5" d="M423.4,69.7c-13.9,2.8,3.7,16,6.5,22.1l34.4-15.3C460.7,68.7,451.4,65.2,423.4,69.7z"/>
			<g>
				<path class="st2" d="M2.6,183.9l58.3,102c0,0-4.5,0.9,0,0L10.7,182.5C5.3,182.7,2.6,183.9,2.6,183.9z"/>
				<path class="st0" d="M118.5,266l-24.6-35.4c0,0-51.2-40.9-65.1-45.2c-7.9-2.5-13.8-3-18.1-2.8L60.9,286
					C65.3,285.1,118.5,266,118.5,266z"/>
			</g>
			<g>
				<polygon class="st1" points="55.3,274.4 81.6,320.3 96.7,310.1 86.2,259.4 				"/>
				<polygon class="st2" points="107,249.4 86.2,259.4 96.7,310.1 106.2,303.6 				"/>
			</g>
			<polygon class="st0" points="351.6,136.1 328.6,146.5 361.1,311.5 375.9,304.6 			"/>
			<g>
				<polygon class="st2" points="328.6,146.5 235.9,188.2 345.7,318.6 361.1,311.5 				"/>
				<polygon class="st1" points="222,194.5 339.3,321.6 345.7,318.6 235.9,188.2 				"/>
			</g>
			<g>
				<path class="st5" d="M402,98.3c0,3.6-2.9,6.5-6.5,6.5c-3.6,0-6.5-2.9-6.5-6.5c0-3.6,2.9-6.5,6.5-6.5
					C399.1,91.8,402,94.7,402,98.3z"/>
				<path class="st5" d="M384.2,106.7c0,3.5-2.8,6.3-6.3,6.3c-3.5,0-6.3-2.8-6.3-6.3c0-3.5,2.8-6.3,6.3-6.3
					C381.4,100.4,384.2,103.2,384.2,106.7z"/>
				<path class="st5" d="M366.4,115.1c0,3.4-2.8,6.2-6.2,6.2s-6.2-2.8-6.2-6.2c0-3.4,2.8-6.2,6.2-6.2S366.4,111.7,366.4,115.1z"/>
				<path class="st5" d="M348.7,123.5c0,3.3-2.7,6-6,6c-3.3,0-6-2.7-6-6c0-3.3,2.7-6,6-6C346,117.5,348.7,120.2,348.7,123.5z"/>
				<path class="st5" d="M330.9,131.9c0,3.2-2.6,5.8-5.8,5.8c-3.2,0-5.8-2.6-5.8-5.8c0-3.2,2.6-5.8,5.8-5.8
					C328.3,126.1,330.9,128.7,330.9,131.9z"/>
				<path class="st5" d="M313.1,140.4c0,3.1-2.5,5.7-5.7,5.7c-3.1,0-5.7-2.5-5.7-5.7c0-3.1,2.5-5.7,5.7-5.7
					C310.6,134.7,313.1,137.2,313.1,140.4z"/>
				<path class="st5" d="M295.4,148.8c0,3-2.5,5.5-5.5,5.5c-3,0-5.5-2.5-5.5-5.5c0-3,2.5-5.5,5.5-5.5
					C292.9,143.3,295.4,145.7,295.4,148.8z"/>
				<path class="st5" d="M277.6,157.2c0,2.9-2.4,5.3-5.3,5.3c-2.9,0-5.3-2.4-5.3-5.3c0-2.9,2.4-5.3,5.3-5.3
					C275.2,151.9,277.6,154.2,277.6,157.2z"/>
				<path class="st5" d="M259.8,165.6c0,2.8-2.3,5.1-5.2,5.1s-5.2-2.3-5.2-5.1c0-2.9,2.3-5.2,5.2-5.2S259.8,162.7,259.8,165.6z"/>
				<path class="st5" d="M242.1,174c0,2.8-2.2,5-5,5c-2.7,0-5-2.2-5-5c0-2.8,2.2-5,5-5C239.8,169,242.1,171.3,242.1,174z"/>
				<path class="st5" d="M224.3,182.4c0,2.7-2.2,4.8-4.8,4.8c-2.7,0-4.8-2.2-4.8-4.8c0-2.7,2.1-4.8,4.8-4.8
					C222.1,177.6,224.3,179.8,224.3,182.4z"/>
				<path class="st5" d="M206.5,190.8c0,2.6-2.1,4.6-4.6,4.6c-2.6,0-4.6-2.1-4.6-4.6s2.1-4.6,4.6-4.6
					C204.4,186.2,206.5,188.3,206.5,190.8z"/>
			</g>
		</g>
		<g>
			<path class="st6" d="M493.5,449.6H19.8c-8,0-14.5-6.5-14.5-14.5c0-8,6.5-14.5,14.5-14.5h473.7c8,0,14.5,6.5,14.5,14.5
				C508,443.1,501.5,449.6,493.5,449.6z"/>
		</g>
	</g>
	<polygon class="st6" points="358.9,186.7 364.1,222.9 378.6,207.9 375.9,179.2 	"/>
	<polygon class="st6" points="367.2,243.9 370.6,267.6 385.1,254.1 383.7,236.5 	"/>
	<polygon class="st6" points="302.8,281.5 291.2,293.4 295.3,298.2 310.5,289.9 	"/>
	<polygon class="st6" points="273,249.4 261.4,261.3 265.5,266.1 280.7,257.7 	"/>
	<polygon class="st6" points="278.3,102.7 288,95.3 261.4,91.8 242.4,99 	"/>
	<polygon class="st6" points="174.6,157.8 166.2,161.5 156.7,158.2 165.4,150.3 	"/>
	<polygon class="st6" points="204.7,95.6 211.4,88.4 188.2,85.7 176.1,92.7 	"/>
	<polygon class="st6" points="139.7,129.9 133.8,135.9 137,142.5 146.8,135.5 	"/>
</g>
</svg>
