<?xml version="1.0" encoding="utf-8"?>
<!-- Generator: Adobe Illustrator 22.1.0, SVG Export Plug-In . SVG Version: 6.00 Build 0)  -->
<svg version="1.1" id="Layer_1" xmlns="http://www.w3.org/2000/svg" xmlns:xlink="http://www.w3.org/1999/xlink" x="0px" y="0px"
	 viewBox="0 0 512 512" style="enable-background:new 0 0 512 512;" xml:space="preserve">
<style type="text/css">
	.st0{fill:#2C5871;}
	.st1{fill:#FDC63A;}
	.st2{fill:#EE6823;}
	.st3{fill:#F7971D;}
	.st4{fill:#16AFBE;}
	.st5{fill:#22BECE;}
	.st6{fill:#FFFFFF;}
</style>
<g>
	<g>
		<path class="st0" d="M493.4,449.6H17.2c-8.1,0-14.6-6.5-14.6-14.6c0-8.1,6.5-14.6,14.6-14.6h476.2c8.1,0,14.6,6.5,14.6,14.6
			C508,443,501.5,449.6,493.4,449.6z"/>
	</g>
	<g>
		<g>
			<g>
				<polygon class="st1" points="234.2,77.6 210.8,64.7 337.9,221.3 359.9,227.4 				"/>
				<g>
					<polygon class="st2" points="198.9,58.1 215.5,189.3 229,190.9 203.9,60.8 					"/>
					<polygon class="st3" points="210.8,64.7 203.9,60.8 229,190.9 337.9,221.3 					"/>
				</g>
			</g>
			<polygon class="st2" points="87.8,146.2 70,106.7 36.5,83.5 52,139.1 			"/>
			<path class="st4" d="M436.9,322.6c14,0.5,49.1-2,53.8-15.1l-396-139.7l-6.9,19.6C87.8,187.4,343.4,319.6,436.9,322.6z"/>
			<path class="st5" d="M458.3,261.9c-74.7-56.3-356.7-113.8-356.7-113.8l-6.9,19.6l396,139.7C495.3,294.3,469.5,270.3,458.3,261.9z
				"/>
			<path class="st6" d="M452,262.7c-12-7.7-8.5,14.1-10.8,20.5l35.5,13.1C479.7,288.1,475.3,279.1,452,262.7z"/>
			<g>
				<path class="st3" d="M68.4,50.6L39.1,165.1c0,0-3.8-2.5,0,0L75.3,55.3C71.2,51.6,68.4,50.6,68.4,50.6z"/>
				<path class="st1" d="M94.6,190.9l7-42.7c0,0-8.3-65.3-15.3-78.2c-3.9-7.3-7.9-11.8-11.1-14.7L39.1,165.1
					C42.8,167.5,94.6,190.9,94.6,190.9z"/>
			</g>
			<g>
				<polygon class="st2" points="43.1,152.7 30,204.3 48,207.5 75.9,163.6 				"/>
				<polygon class="st3" points="97.9,170.9 75.9,163.6 48,207.5 59.4,209.5 				"/>
			</g>
			<polygon class="st1" points="353.7,260.4 329.8,251.8 237.8,393.6 253.3,399 			"/>
			<g>
				<polygon class="st3" points="329.8,251.8 233.8,217 221.8,387.9 237.8,393.6 				"/>
				<polygon class="st2" points="219.4,211.7 215,385.6 221.8,387.9 233.8,217 				"/>
			</g>
			<g>
				<path class="st6" d="M416.6,268.3c-2.5,2.6-6.6,2.7-9.3,0.1c-2.6-2.5-2.6-6.7-0.1-9.2c2.5-2.6,6.7-2.7,9.2-0.1
					C419,261.6,419.1,265.7,416.6,268.3z"/>
				<path class="st6" d="M397.9,262c-2.4,2.5-6.5,2.6-9,0.1c-2.5-2.4-2.6-6.5-0.1-9c2.4-2.5,6.5-2.6,9-0.1
					C400.2,255.4,400.3,259.5,397.9,262z"/>
				<path class="st6" d="M379.1,255.6c-2.4,2.5-6.3,2.5-8.8,0.1c-2.5-2.4-2.5-6.3-0.1-8.8c2.4-2.5,6.3-2.5,8.8-0.1
					C381.5,249.2,381.5,253.2,379.1,255.6z"/>
				<path class="st6" d="M360.4,249.2c-2.3,2.4-6.1,2.5-8.5,0.1c-2.4-2.3-2.4-6.1-0.1-8.5c2.3-2.4,6.1-2.5,8.5-0.1
					C362.7,243,362.7,246.9,360.4,249.2z"/>
				<path class="st6" d="M341.7,242.9c-2.3,2.3-6,2.4-8.3,0.1c-2.3-2.3-2.4-6-0.1-8.3c2.3-2.3,6-2.4,8.3-0.1
					C343.9,236.8,344,240.6,341.7,242.9z"/>
				<path class="st6" d="M323,236.5c-2.2,2.3-5.8,2.3-8,0.1c-2.3-2.2-2.3-5.8-0.1-8c2.2-2.3,5.8-2.3,8-0.1
					C325.1,230.7,325.2,234.3,323,236.5z"/>
				<path class="st6" d="M304.3,230.1c-2.1,2.2-5.6,2.2-7.8,0.1c-2.2-2.1-2.2-5.6-0.1-7.8c2.1-2.2,5.6-2.2,7.8-0.1
					C306.4,224.5,306.4,228,304.3,230.1z"/>
				<path class="st6" d="M285.6,223.8c-2.1,2.1-5.4,2.2-7.6,0.1c-2.1-2.1-2.2-5.4-0.1-7.6c2.1-2.1,5.4-2.2,7.6-0.1
					C287.6,218.3,287.6,221.7,285.6,223.8z"/>
				<path class="st6" d="M266.9,217.4c-2,2-5.3,2.1-7.3,0.1c-2.1-2-2.1-5.3-0.1-7.3c2-2.1,5.3-2.1,7.3-0.1
					C268.8,212.1,268.9,215.4,266.9,217.4z"/>
				<path class="st6" d="M248.2,211c-1.9,2-5.1,2-7.1,0.1c-2-1.9-2-5.1-0.1-7.1c1.9-2,5.1-2,7.1-0.1
					C250,205.9,250.1,209.1,248.2,211z"/>
				<path class="st6" d="M229.4,204.7c-1.9,1.9-4.9,2-6.8,0.1c-1.9-1.9-2-4.9-0.1-6.8c1.9-1.9,4.9-2,6.9-0.1
					C231.3,199.7,231.3,202.8,229.4,204.7z"/>
				<path class="st6" d="M210.7,198.3c-1.8,1.9-4.8,1.9-6.6,0.1c-1.9-1.8-1.9-4.8-0.1-6.6c1.8-1.8,4.7-1.9,6.6-0.1
					C212.5,193.5,212.5,196.5,210.7,198.3z"/>
			</g>
		</g>
		<polygon class="st0" points="323.6,302 302,331.8 323,331.1 341.1,308.4 		"/>
		<polygon class="st0" points="289.5,349 275.4,368.6 295.3,368.9 306.6,355.3 		"/>
		<polygon class="st0" points="216.7,331.1 200,331.6 199.6,337.9 216.4,342.5 		"/>
		<polygon class="st0" points="217.7,287.1 201,287.6 200.6,293.9 217.4,298.5 		"/>
		<polygon class="st0" points="324.2,184.9 336.3,186.4 319.7,165.3 300.9,157.2 		"/>
		<polygon class="st0" points="210.8,152.2 202.2,148.9 197.6,140 209.5,140.3 		"/>
		<polygon class="st0" points="276.1,128.3 286,127.8 271.1,109.6 257.5,106.2 		"/>
		<polygon class="st0" points="205.1,107.6 196.7,107.8 194.4,114.7 206.3,116.6 		"/>
	</g>
</g>
</svg>
