<?xml version="1.0" encoding="utf-8"?>
<!-- Generator: Adobe Illustrator 22.1.0, SVG Export Plug-In . SVG Version: 6.00 Build 0)  -->
<svg version="1.1" id="Layer_1" xmlns="http://www.w3.org/2000/svg" xmlns:xlink="http://www.w3.org/1999/xlink" x="0px" y="0px"
	 viewBox="0 0 512 512" style="enable-background:new 0 0 512 512;" xml:space="preserve">
<style type="text/css">
	.st0{fill:#234759;}
	.st1{fill:#FDC63A;}
	.st2{fill:#EE6823;}
	.st3{fill:#F7971D;}
	.st4{fill:#16AFBE;}
	.st5{fill:#22BECE;}
	.st6{fill:#2C5871;}
	.st7{fill:#FFFFFF;}
	.st8{fill:#ECECEC;}
</style>
<g>
	<g>
		<path class="st0" d="M244.4,149.1h-20.5c-1.2,0-2.2-1.4-2.2-3c0-1.7,1-3,2.2-3h20.5V149.1z"/>
		<polygon class="st0" points="289.4,137.5 289.4,154.7 345.3,154.7 333.5,137.5 		"/>
	</g>
	<g>
		<path class="st0" d="M244.4,109.6h-31.1c-1.9,0-3.4-2-3.4-4.6c0-2.5,1.5-4.6,3.4-4.6h31.1V109.6z"/>
		<polygon class="st0" points="247.5,119.7 323.5,119.7 301.3,90.3 247.5,90.3 		"/>
	</g>
	<g>
		<path class="st0" d="M244.4,365.7h-20.5c-1.2,0-2.2,1.4-2.2,3c0,1.7,1,3,2.2,3h20.5V365.7z"/>
		<polygon class="st0" points="289.4,377.3 289.4,360.1 345.3,360.1 333.5,377.3 		"/>
	</g>
	<g>
		<path class="st0" d="M244.4,405.2h-31.1c-1.9,0-3.4,2-3.4,4.6c0,2.5,1.5,4.6,3.4,4.6h31.1V405.2z"/>
		<polygon class="st0" points="247.5,395.1 323.5,395.1 301.3,424.5 247.5,424.5 		"/>
	</g>
	<g>
		<path class="st1" d="M238.5,45.2c26.9,30.9,75.8,87.9,95.2,116c27.4,39.6,75.9,54.8,75.9,54.8l-55.6,8.7
			C324,194.9,278.5,138.9,238.5,45.2z"/>
		<g>
			<polygon class="st2" points="253.5,240.3 206.9,42.3 211,36.7 276.1,236.8 			"/>
			<path class="st3" d="M238.5,45.2C278.5,138.9,324,194.9,354,224.6l-78,12.2L211,36.7l9.1-12.5C220.1,24.2,227.5,32.5,238.5,45.2z
				"/>
		</g>
	</g>
	<g>
		<path class="st1" d="M238.5,469.6c26.9-30.9,75.8-87.9,95.2-116c27.4-39.6,75.9-54.8,75.9-54.8l-55.6-8.7
			C324,319.9,278.5,375.8,238.5,469.6z"/>
		<g>
			<polygon class="st2" points="253.5,274.5 206.9,472.5 211,478.1 276.1,278 			"/>
			<path class="st3" d="M238.5,469.6C278.5,375.8,324,319.9,354,290.2l-78-12.2L211,478.1l9.1,12.5
				C220.1,490.6,227.5,482.3,238.5,469.6z"/>
		</g>
	</g>
	<g>
		<path class="st3" d="M8.1,176.4c0,0,9.9-0.3,24.4,12.8c11.3,10.2,38.4,46.5,38.4,46.5v21.7c0,0-24-0.7-31.3-2.2
			c-1.9-0.4-5,0.7-8,2.2c-5.5-2.7-11.3-6.9-11.3-6.9L8.1,176.4z"/>
		<path class="st1" d="M70.9,257.4v21.7c0,0-27.1,36.3-38.4,46.5C18,338.6,8.1,338.4,8.1,338.4l12.2-74.1c0,0,5.7-4.2,11.3-6.8
			c3.1,1.5,6.1,2.5,8,2.2C46.9,258.1,70.9,257.4,70.9,257.4z"/>
	</g>
	<g>
		<path class="st4" d="M460.4,223.9c13.9,4.4,47.6,18.9,47.6,33.5H70.9v-21.7C70.9,235.7,367.6,194.5,460.4,223.9z"/>
		<path class="st5" d="M460.4,290.9c-92.9,29.4-389.6-11.8-389.6-11.8v-21.7H508C508,271.9,474.3,286.5,460.4,290.9z"/>
	</g>
	<g>
		<path class="st6" d="M39.5,265.5c9,0,57.6-8.1,57.6-8.1H2.9c-1.3,0,1.8,4,6.7,6C18.4,266.9,33.7,265.5,39.5,265.5z"/>
	</g>
	<g>
		<path class="st0" d="M39.5,249.3c9,0,57.6,8.1,57.6,8.1H2.9c-1.3,0,1.8-4,6.7-6C18.4,247.8,33.7,249.3,39.5,249.3z"/>
	</g>
	<g>
		<path class="st7" d="M455.5,284.8c-14.5,3.4-0.4-20.4-0.4-27.4h30.1C485.2,266.4,484,276.8,455.5,284.8z"/>
		<path class="st8" d="M455.5,230c28.5,8,29.7,18.4,29.7,27.4h-30.1C455.1,250.4,441,226.6,455.5,230z"/>
	</g>
</g>
</svg>
