<?xml version="1.0" encoding="utf-8"?>
<!-- Generator: Adobe Illustrator 22.1.0, SVG Export Plug-In . SVG Version: 6.00 Build 0)  -->
<svg version="1.1" id="Layer_1" xmlns="http://www.w3.org/2000/svg" xmlns:xlink="http://www.w3.org/1999/xlink" x="0px" y="0px"
	 viewBox="0 0 1193.3 512" style="enable-background:new 0 0 1193.3 512;" xml:space="preserve">
<style type="text/css">
	.st0{opacity:0.4;fill:#D2E4FF;}
	.st1{fill:#E58638;}
	.st2{fill:#AFCDFB;}
	.st3{fill:#739AF0;}
	.st4{fill:#699FF0;}
	.st5{fill:#2B478B;}
	.st6{fill:#D86713;}
	.st7{opacity:0.6;fill:#D2E4FF;}
	.st8{opacity:0.8;}
	.st9{opacity:0.7;fill:#F8FBFF;}
	.st10{fill:#CAE0FC;}
	.st11{fill:#98BDF4;}
	.st12{fill:#D2E4FF;}
	.st13{fill:#77A7ED;}
	.st14{opacity:0.5;fill:#4A75CB;}
	.st15{fill:#D9935C;}
	.st16{fill:#A8D29F;}
	.st17{fill:#466AA5;}
	.st18{fill:#233862;}
	.st19{fill:#CB7D45;}
	.st20{fill:#AA413E;}
	.st21{fill:#B64C41;}
	.st22{fill:#283250;}
	.st23{fill:#F1A34F;}
	.st24{opacity:0.4;fill:#D86713;}
	.st25{fill:#CB8757;}
	.st26{fill:#E7F0FD;}
	.st27{fill:#DA935B;}
	.st28{fill:#9E3732;}
	.st29{fill:#FFB27D;}
	.st30{fill:#415DA5;}
	.st31{fill:#355493;}
	.st32{fill:#B84C42;}
	.st33{fill:#E8945B;}
	.st34{fill:#E9F3FE;}
	.st35{fill:#FFFFFF;}
	.st36{fill:#4A75CB;}
	.st37{fill:#FFA412;}
	.st38{fill:#ED6058;}
	.st39{fill:#AB7041;}
	.st40{fill:#9C5F33;}
	.st41{fill:#74ACBE;}
	.st42{fill:#9ED9F0;}
	.st43{fill:#DD7F30;}
	.st44{fill:#D6716B;}
	.st45{fill:#A05F32;}
	.st46{fill:#AF7041;}
	.st47{opacity:0.1;fill:#4A75CB;}
</style>
<g>
	<path class="st0" d="M1176.1,73.1v365.2c0,34-27.8,61.8-61.8,61.8H123.5c-24.1,0-45-13.9-55.2-34.2c-4.2-8.3-6.5-17.7-6.5-27.6
		V73.1c0-34,27.8-61.8,61.8-61.8h990.9C1148.4,11.3,1176.1,39.1,1176.1,73.1z"/>
	<g>
		<path class="st1" d="M748.7,128.6l-18.1,40.1l-0.5-0.1L676,157.7c0,0,25.4-1.3,28.1-3.3c2.6-1.9,30.1-24.7,37.9-26.6
			c0.5-0.1,0.9-0.2,1.2-0.1C748.7,128.6,748.7,128.6,748.7,128.6z"/>
		<path class="st1" d="M732.3,177.1c-1.3,0.2-5,0.7-10.2,1.3c-14.9,1.7-41.3,4-52.8,2.2c-10.3-1.7-65-10.8-102.7-17.4
			c9.8-11.2,21.6-16.8,32.3-19.3c44,7.5,101.6,17.5,108.9,19.3c12,3.1,28,6.3,28,6.3s0.1,0.4,0.2,1C736,172.3,736,176.5,732.3,177.1
			z"/>
		<path class="st2" d="M732.3,177.1c-1.3,0.2-5,0.7-10.2,1.3c-14.9,1.7-41.3,4-52.8,2.2c-10.3-1.7-65-10.8-102.7-17.4
			c-19-3.3-33.7-6-36.4-6.8c-8.1-2.5-24.8-10-22.7-13.4c2.1-3.4,8.8-3.3,10.9-4.5c0,0,0.1,0,0.1-0.1c0.5-0.3,1.3-0.7,2.4-1.2
			c4.1-1.8,12.5-4.4,26.8-2c0,0,22.8,3.8,51.2,8.7c44,7.5,101.6,17.5,108.9,19.3c12,3.1,28,6.3,28,6.3s0.1,0.4,0.2,1
			C736,172.3,736,176.5,732.3,177.1z"/>
		<path class="st3" d="M732.3,177.1c-1.3,0.2-5,0.7-10.2,1.3c-1.4-5.6-6.8-8.5-6.8-8.5l20.5,0.5C736,172.3,736,176.5,732.3,177.1z"
			/>
		<g>
			<g>
				<g>
					<path class="st4" d="M585,149.4c-0.3-0.1-0.7,0.2-0.7,0.5l-0.1,0.7c-0.1,0.3,0.2,0.7,0.5,0.7c0.3,0.1,0.7-0.2,0.7-0.5l0.1-0.7
						C585.6,149.8,585.3,149.4,585,149.4z"/>
					<path class="st4" d="M591.2,150.5c-0.3-0.1-0.7,0.2-0.7,0.5l-0.1,0.7c-0.1,0.3,0.2,0.7,0.5,0.7c0.3,0.1,0.7-0.2,0.7-0.5
						l0.1-0.7C591.8,150.8,591.6,150.5,591.2,150.5z"/>
					<path class="st4" d="M581.8,148.8c-0.3-0.1-0.7,0.2-0.7,0.5L581,150c-0.1,0.3,0.2,0.7,0.5,0.7c0.3,0.1,0.7-0.2,0.7-0.5l0.1-0.7
						C582.4,149.2,582.2,148.9,581.8,148.8z"/>
					<path class="st4" d="M578.7,148.3c-0.3-0.1-0.7,0.2-0.7,0.5l-0.1,0.7c-0.1,0.3,0.2,0.7,0.5,0.7s0.7-0.2,0.7-0.5l0.1-0.7
						C579.2,148.7,579,148.3,578.7,148.3z"/>
					<path class="st4" d="M575.5,147.7c-0.3-0.1-0.7,0.2-0.7,0.5l-0.1,0.7c-0.1,0.3,0.2,0.7,0.5,0.7c0.3,0.1,0.7-0.2,0.7-0.5
						l0.1-0.7C576,148.1,575.8,147.8,575.5,147.7z"/>
					<path class="st4" d="M572.3,147.2L572.3,147.2c-0.3-0.1-0.7,0.2-0.7,0.5l-0.1,0.7c-0.1,0.3,0.2,0.7,0.5,0.7l0,0
						c0.3,0.1,0.7-0.2,0.7-0.5l0.1-0.7C572.9,147.6,572.6,147.2,572.3,147.2z"/>
					<path class="st4" d="M569.1,146.6c-0.3-0.1-0.7,0.2-0.7,0.5l-0.1,0.7c-0.1,0.3,0.2,0.7,0.5,0.7c0.3,0.1,0.7-0.2,0.7-0.5
						l0.1-0.7C569.7,147,569.5,146.7,569.1,146.6z"/>
					<path class="st4" d="M566,146.1c-0.3-0.1-0.7,0.2-0.7,0.5l-0.1,0.7c-0.1,0.3,0.2,0.7,0.5,0.7c0.3,0.1,0.7-0.2,0.7-0.5l0.1-0.7
						C566.5,146.5,566.3,146.1,566,146.1z"/>
					<path class="st4" d="M562.8,145.5c-0.3-0.1-0.7,0.2-0.7,0.5l-0.1,0.7c-0.1,0.3,0.2,0.7,0.5,0.7c0.3,0.1,0.7-0.2,0.7-0.5
						l0.1-0.7C563.4,145.9,563.1,145.6,562.8,145.5z"/>
					<path class="st4" d="M559.6,145c-0.3-0.1-0.7,0.2-0.7,0.5l-0.1,0.7c-0.1,0.3,0.2,0.7,0.5,0.7c0.3,0.1,0.7-0.2,0.7-0.5l0.1-0.7
						C560.2,145.3,559.9,145,559.6,145z"/>
					<path class="st4" d="M556.5,144.4c-0.3-0.1-0.7,0.2-0.7,0.5l-0.1,0.7c-0.1,0.3,0.2,0.7,0.5,0.7c0.3,0.1,0.7-0.2,0.7-0.5
						l0.1-0.7C557.1,144.8,556.8,144.5,556.5,144.4z"/>
					<path class="st4" d="M553.3,143.9c-0.3-0.1-0.7,0.2-0.7,0.5l-0.1,0.7c-0.1,0.3,0.2,0.7,0.5,0.7c0.3,0.1,0.7-0.2,0.7-0.5
						l0.1-0.7C553.9,144.3,553.7,143.9,553.3,143.9z"/>
					<path class="st4" d="M550.2,143.3c-0.3-0.1-0.7,0.2-0.7,0.5l-0.1,0.7c-0.1,0.3,0.2,0.7,0.5,0.7c0.3,0.1,0.7-0.2,0.7-0.5
						l0.1-0.7C550.7,143.7,550.5,143.4,550.2,143.3z"/>
				</g>
				<path class="st4" d="M524.2,138.2l-3.5-1.1c-1.1,0.5-1.9,1-2.4,1.2l5.3,1.7c0.1,0,0.2,0,0.3,0c0.4,0,0.8-0.3,0.9-0.7
					C525,138.9,524.7,138.3,524.2,138.2z"/>
				<g>
					<path class="st4" d="M606.7,158c-0.1,0-0.1,0-0.2,0l-1-0.2c-0.3-0.1-0.6-0.2-0.8-0.5s-0.3-0.6-0.2-0.9l0.7-4
						c0.1-0.7,0.8-1.1,1.4-1l1,0.2c0.3,0.1,0.6,0.2,0.8,0.5c0.2,0.3,0.3,0.6,0.2,0.9l-0.7,4C607.8,157.6,607.3,158,606.7,158z
						 M606.5,157.9c0.6,0.1,1.2-0.3,1.3-0.9l0.7-4c0.1-0.3,0-0.6-0.2-0.8c-0.2-0.2-0.4-0.4-0.7-0.5l-1-0.2c-0.6-0.1-1.2,0.3-1.3,0.9
						l-0.7,4c-0.1,0.3,0,0.6,0.2,0.8c0.2,0.2,0.4,0.4,0.7,0.5L606.5,157.9z"/>
				</g>
				<g>
					<path class="st4" d="M613,159.1c-0.1,0-0.1,0-0.2,0l-1-0.2c-0.7-0.1-1.1-0.8-1-1.4l0.7-4c0.1-0.7,0.8-1.1,1.4-1l1,0.2
						c0.7,0.1,1.1,0.8,1,1.4l-0.7,4C614.1,158.7,613.6,159.1,613,159.1z M612.8,159c0.6,0.1,1.2-0.3,1.3-0.9l0.7-4
						c0.1-0.6-0.3-1.2-0.9-1.3l-1-0.2c-0.6-0.1-1.2,0.3-1.3,0.9l-0.7,4c-0.1,0.6,0.3,1.2,0.9,1.3L612.8,159z"/>
				</g>
			</g>
			<g>
				<path class="st4" d="M685.5,166.9c-0.3-0.1-0.7,0.2-0.7,0.5l-0.1,0.7c-0.1,0.3,0.2,0.7,0.5,0.7c0.3,0.1,0.7-0.2,0.7-0.5l0.1-0.7
					C686,167.2,685.8,166.9,685.5,166.9z"/>
				<path class="st4" d="M682.3,166.3c-0.3-0.1-0.7,0.2-0.7,0.5l-0.1,0.7c-0.1,0.3,0.2,0.7,0.5,0.7c0.3,0.1,0.7-0.2,0.7-0.5l0.1-0.7
					C682.9,166.7,682.6,166.4,682.3,166.3z"/>
				<path class="st4" d="M679.1,165.8c-0.3-0.1-0.7,0.2-0.7,0.5l-0.1,0.7c-0.1,0.3,0.2,0.7,0.5,0.7c0.3,0.1,0.7-0.2,0.7-0.5l0.1-0.7
					C679.7,166.1,679.5,165.8,679.1,165.8z"/>
				<path class="st4" d="M676,165.2c-0.3-0.1-0.7,0.2-0.7,0.5l-0.1,0.7c-0.1,0.3,0.2,0.7,0.5,0.7c0.3,0.1,0.7-0.2,0.7-0.5l0.1-0.7
					C676.5,165.6,676.3,165.3,676,165.2z"/>
				<path class="st4" d="M672.8,164.7c-0.3-0.1-0.7,0.2-0.7,0.5l-0.1,0.7c-0.1,0.3,0.2,0.7,0.5,0.7c0.3,0.1,0.7-0.2,0.7-0.5l0.1-0.7
					C673.4,165,673.1,164.7,672.8,164.7z"/>
				<path class="st4" d="M669.6,164.1c-0.3-0.1-0.7,0.2-0.7,0.5l-0.1,0.7c-0.1,0.3,0.2,0.7,0.5,0.7c0.3,0.1,0.7-0.2,0.7-0.5l0.1-0.7
					C670.2,164.5,669.9,164.2,669.6,164.1z"/>
				<path class="st4" d="M666.4,163.5c-0.3-0.1-0.7,0.2-0.7,0.5l-0.1,0.7c-0.1,0.3,0.2,0.7,0.5,0.7c0.3,0.1,0.7-0.2,0.7-0.5l0.1-0.7
					C667,163.9,666.8,163.6,666.4,163.5z"/>
				<path class="st4" d="M663.3,163c-0.3-0.1-0.7,0.2-0.7,0.5l-0.1,0.7c-0.1,0.3,0.2,0.7,0.5,0.7s0.7-0.2,0.7-0.5l0.1-0.7
					C663.8,163.4,663.6,163.1,663.3,163z"/>
				<path class="st4" d="M660.1,162.4c-0.3-0.1-0.7,0.2-0.7,0.5l-0.1,0.7c-0.1,0.3,0.2,0.7,0.5,0.7c0.3,0.1,0.7-0.2,0.7-0.5l0.1-0.7
					C660.7,162.8,660.4,162.5,660.1,162.4z"/>
				<path class="st4" d="M622.7,155.9c-0.3-0.1-0.7,0.2-0.7,0.5l-0.1,0.7c-0.1,0.3,0.2,0.7,0.5,0.7c0.3,0.1,0.7-0.2,0.7-0.5l0.1-0.7
					C623.3,156.3,623,156,622.7,155.9z"/>
				<path class="st4" d="M619.5,155.4c-0.3-0.1-0.7,0.2-0.7,0.5l-0.1,0.7c-0.1,0.3,0.2,0.7,0.5,0.7l0,0c0.3,0.1,0.7-0.2,0.7-0.5
					l0.1-0.7C620.1,155.8,619.8,155.4,619.5,155.4z"/>
				<path class="st4" d="M616.3,154.8c-0.3-0.1-0.7,0.2-0.7,0.5l-0.1,0.7c-0.1,0.3,0.2,0.7,0.5,0.7s0.7-0.2,0.7-0.5l0.1-0.7
					C616.9,155.2,616.7,154.9,616.3,154.8z"/>
				<path class="st4" d="M613.2,154.3c-0.3-0.1-0.7,0.2-0.7,0.5l-0.1,0.7c-0.1,0.3,0.2,0.7,0.5,0.7c0.3,0.1,0.7-0.2,0.7-0.5l0.1-0.7
					C613.7,154.7,613.5,154.3,613.2,154.3z"/>
				<path class="st4" d="M610,153.7c-0.3-0.1-0.7,0.2-0.7,0.5l-0.1,0.7c-0.1,0.3,0.2,0.7,0.5,0.7c0.3,0.1,0.7-0.2,0.7-0.5l0.1-0.7
					C610.6,154.1,610.3,153.8,610,153.7z"/>
				<path class="st4" d="M606.8,153.2c-0.3-0.1-0.7,0.2-0.7,0.5l-0.1,0.7c-0.1,0.3,0.2,0.7,0.5,0.7c0.3,0.1,0.7-0.2,0.7-0.5l0.1-0.7
					C607.4,153.6,607.2,153.2,606.8,153.2z"/>
				<path class="st4" d="M603.6,152.6c-0.3-0.1-0.7,0.2-0.7,0.5l-0.1,0.7c-0.1,0.3,0.2,0.7,0.5,0.7c0.3,0.1,0.7-0.2,0.7-0.5l0.1-0.7
					C604.2,153,604,152.7,603.6,152.6z"/>
				<path class="st4" d="M600.5,152.1c-0.3-0.1-0.7,0.2-0.7,0.5l-0.1,0.7c-0.1,0.3,0.2,0.7,0.5,0.7c0.3,0.1,0.7-0.2,0.7-0.5l0.1-0.7
					C601,152.5,600.8,152.1,600.5,152.1z"/>
				<path class="st4" d="M597.3,151.5c-0.3-0.1-0.7,0.2-0.7,0.5l-0.1,0.7c-0.1,0.3,0.2,0.7,0.5,0.7c0.3,0.1,0.7-0.2,0.7-0.5l0.1-0.7
					C597.9,151.9,597.6,151.6,597.3,151.5z"/>
				<path class="st4" d="M650.8,160.8c-0.3-0.1-0.7,0.2-0.7,0.5l-0.1,0.7c-0.1,0.3,0.2,0.7,0.5,0.7c0.3,0.1,0.7-0.2,0.7-0.5l0.1-0.7
					C651.3,161.2,651.1,160.9,650.8,160.8z"/>
				<path class="st4" d="M647.6,160.3c-0.3-0.1-0.7,0.2-0.7,0.5l-0.1,0.7c-0.1,0.3,0.2,0.7,0.5,0.7c0.3,0.1,0.7-0.2,0.7-0.5l0.1-0.7
					C648.1,160.7,647.9,160.3,647.6,160.3z"/>
				<path class="st4" d="M644.4,159.7c-0.3-0.1-0.7,0.2-0.7,0.5l-0.1,0.7c-0.1,0.3,0.2,0.7,0.5,0.7c0.3,0.1,0.7-0.2,0.7-0.5l0.1-0.7
					C645,160.1,644.7,159.8,644.4,159.7z"/>
				<path class="st4" d="M641.2,159.2c-0.3-0.1-0.7,0.2-0.7,0.5l-0.1,0.7c-0.1,0.3,0.2,0.7,0.5,0.7c0.3,0.1,0.7-0.2,0.7-0.5l0.1-0.7
					C641.8,159.5,641.6,159.2,641.2,159.2z"/>
				<path class="st4" d="M638.1,158.6c-0.3-0.1-0.7,0.2-0.7,0.5l-0.1,0.7c-0.1,0.3,0.2,0.7,0.5,0.7c0.3,0.1,0.7-0.2,0.7-0.5l0.1-0.7
					C638.6,159,638.4,158.7,638.1,158.6z"/>
				<path class="st4" d="M634.9,158.1c-0.3-0.1-0.7,0.2-0.7,0.5l-0.1,0.7c-0.1,0.3,0.2,0.7,0.5,0.7s0.7-0.2,0.7-0.5l0.1-0.7
					C635.5,158.4,635.2,158.1,634.9,158.1z"/>
				<path class="st4" d="M631.7,157.5c-0.3-0.1-0.7,0.2-0.7,0.5l-0.1,0.7c-0.1,0.3,0.2,0.7,0.5,0.7c0.3,0.1,0.7-0.2,0.7-0.5l0.1-0.7
					C632.3,157.9,632,157.6,631.7,157.5z"/>
				<path class="st4" d="M628.5,157c-0.3-0.1-0.7,0.2-0.7,0.5l-0.1,0.7c-0.1,0.3,0.2,0.7,0.5,0.7c0.3,0.1,0.7-0.2,0.7-0.5l0.1-0.7
					C629.1,157.3,628.9,157,628.5,157z"/>
				<path class="st4" d="M625.4,156.4c-0.3-0.1-0.7,0.2-0.7,0.5l-0.1,0.7c-0.1,0.3,0.2,0.7,0.5,0.7c0.3,0.1,0.7-0.2,0.7-0.5l0.1-0.7
					C625.9,156.8,625.7,156.5,625.4,156.4z"/>
			</g>
		</g>
		<path class="st3" d="M611.8,171.6c1.9-0.3,2.5-2.7,1-3.9c-1.5-1.2-3.5-2.5-5.8-2.9c-4.8-0.8-3.2,6.8-1.6,7.2
			C606.3,172.2,609.3,172.1,611.8,171.6z"/>
		<path class="st3" d="M608.2,163.2l-1.7,10c0,0-5.2,0.8-13.1-0.3c-4.9-0.7-8.1-1.9-9.8-2.7c-1.1-0.5-1.6-0.9-1.6-0.9l1.8-10.5
			c0.5-0.2,1.1-0.4,1.9-0.4c6.4-0.5,21.7,4.3,21.7,4.3L608.2,163.2z"/>
		<path class="st1" d="M585.6,158.4l-2,11.8c-1.1-0.5-1.6-0.9-1.6-0.9l1.8-10.5C584.2,158.6,584.8,158.4,585.6,158.4z"/>
		<g>
			<path class="st3" d="M668.3,148c0,0-7.6,11-9.1,12.6c-1.4,1.6-4.4,2.5-4.4,2.5l0,0l-18.9,3.7c0,0-23.1-3.9-28.1-4.9c0,0,0,0,0,0
				c-0.5-0.1-0.8-0.2-0.9-0.2c-1.5-0.4-2.2-1-1.9-1.4c0.3-0.4,36.1,0.2,40.1,0.3c0,0,0.1,0,0.1,0c3.9,0.1,4.3-0.9,4.3-0.9l15.4-11.2
				c0.2-0.2,0.5-0.4,0.9-0.5C666.8,147.8,668.3,148,668.3,148z"/>
			<path class="st1" d="M665.8,148.1c-4.1,3.2-15.6,12.1-16.7,12.7c-1.2,0.6-33.3,1.1-41.2,1.2c0,0,0,0,0,0
				c-0.5-0.1-0.8-0.2-0.9-0.2c-1.5-0.4-2.2-1-1.9-1.4c0.3-0.4,36.1,0.2,40.1,0.3c4,0.1,4.4-0.9,4.4-0.9l15.4-11.2
				C665.1,148.4,665.4,148.2,665.8,148.1z"/>
			<path class="st5" d="M668.3,148c0,0-7.6,11-9.1,12.6c-1.4,1.6-4.4,2.5-4.4,2.5l0,0c-4-0.5-7.4-1.6-9.6-2.4
				c3.9,0.1,4.3-0.9,4.3-0.9l15.4-11.2c0.2-0.2,0.5-0.4,0.9-0.5C666.8,147.8,668.3,148,668.3,148z"/>
		</g>
		<path class="st6" d="M730.1,168.6L676,157.7c0,0,25.4-1.3,28.1-3.3c2.6-1.9,30.1-24.7,37.9-26.6c-7.2,6.7-23.8,23-23.4,28.2
			C719,161.1,726.4,166.3,730.1,168.6z"/>
		<path class="st5" d="M714.9,168.3c0.2-0.2,18.3-2.7,29.9,0.5l-11.5,4.2l-18-3.1C715.2,169.8,713.9,169.2,714.9,168.3z"/>
	</g>
	<path class="st7" d="M1009,202.6C857.7,197.3,879.4-45.5,658.1,76.4c-57.3,31.6-133.6-52.1-235.4,41.7
		c-24.8,22.9-52.6,44.8-126.9,18.5C91.1,63.9,78.7,498.1,156.4,499c77.7,0.9,895.6,0.8,895.6,0.8s36,3,71-39.6
		C1194.6,373,1123,206.6,1009,202.6z"/>
	<g class="st8">
		<polygon class="st9" points="1110.7,11.3 777.6,499.8 693.8,499.8 1039.9,11.3 		"/>
		<polygon class="st9" points="919,11.3 585.9,499.8 566.3,499.8 898.7,11.3 		"/>
		<polygon class="st9" points="536.9,11.3 203.8,499.8 120,499.8 466.1,11.3 		"/>
		<path class="st9" d="M381.2,11.3L68.3,470.2c-4.2-8.4-6.5-17.9-6.5-27.8V214.9L221.5,11.3H381.2z"/>
	</g>
	<rect x="343.5" y="11.3" class="st10" width="19.2" height="486"/>
	<rect x="906.8" y="11.3" class="st10" width="19.2" height="486"/>
	<path class="st11" d="M61.7,500.1h205.4V163.5h-15.8c-104.7,0-189.5,84.9-189.5,189.5V500.1z"/>
	<g>
		<rect x="455.7" y="339.2" class="st12" width="80.6" height="161.4"/>
		<rect x="455.7" y="372.4" class="st11" width="80.6" height="33.1"/>
		<rect x="455.7" y="434.5" class="st11" width="80.6" height="33.1"/>
	</g>
	<path class="st2" d="M406.8,163.4H278V500h202.3V236.8C480.2,196.3,447.4,163.4,406.8,163.4z"/>
	<path class="st2" d="M301.2,163.4V500H124.5V236.8c0-40.5,28.7-73.4,64.1-73.4H301.2z"/>
	<path class="st3" d="M412.9,499.4H278V193.5h98.7c20,0,36.2,16.2,36.2,36.2V499.4z"/>
	<path class="st3" d="M273.8,193.5c-6.6,0-11.9,5.3-11.9,11.9v294h134.9V193.5H273.8z"/>
	<path class="st13" d="M205.5,356.2c0,0,0,107.6,0,143.8h-81V380c9.4-6.2,36.1-23.5,38.7-24.4L205.5,356.2z"/>
	<path class="st14" d="M401.7,193.5h-11.7v306h22.8V204.7C412.9,198.5,407.9,193.5,401.7,193.5z"/>
	<g>
		<path class="st15" d="M1051.5,329.6c-0.4-1.2-0.7-2.1-0.9-2.6c-0.1-0.2-0.1-0.3-0.1-0.3s-0.1,0.1-0.3,0.4
			c-1.3,1.6-5.5,8.3-2.3,23.9c0.5,2.3,1.1,4.8,1.9,7.5c0,0-11.9-2.1-15.2-4.3c-0.1-0.4-1.9-5.5-3.2-6.2c-1.3-0.7-3.8-1.5-4.3-1.2
			c-0.6,0.3-1.6,4.2,0,6.2c1.6,2,5.7,4,5.7,4s13.3,10.6,22.5,10.4C1063,367,1054.5,338.8,1051.5,329.6z"/>
		<path class="st16" d="M1108.4,398.5c-0.5-1.3-0.7-3.1-0.7-3.1c-6.7,2.9-14.1,1.7-14.1,1.7c-0.6,2.6-0.1,6.2-0.1,6.2
			c7.6,2,15.9-2.4,15.9-2.4S1108.7,399.4,1108.4,398.5z"/>
		<path class="st17" d="M1098.1,378.4c-0.3,0.7-1.6,1.4-3.5,1.9c-0.2,0-0.4,0.1-0.5,0.1c-4.3,0.9-11.1,1-16.1-0.9
			c-5.6-2.1-9.7-31.7-11.4-46.8c0-0.2-0.1-0.5-0.1-0.7c-0.6-4.9-0.8-8.1-0.8-8.1s3.2-5,15.7-3.4c12.5,1.7,13.7,5.9,14.8,13.4
			C1097.2,341.5,1099,376,1098.1,378.4z"/>
		<path class="st5" d="M1094,380.4c-4.3,0.9-11.1,1-16.1-0.9c-5.6-2.1-9.7-31.7-11.4-46.8c0-0.2-0.1-0.5-0.1-0.7
			c1.3-4.4,2.2-7.2,2.2-7.2s15.6-1.9,18.7,2.8C1090,331.8,1093.2,370.7,1094,380.4z"/>
		<path class="st15" d="M1101.1,395c-0.9-0.6-1.8-2.4-2.1-3.1c-2.8-7.1-6.1-20.8-7.2-23.3c-0.4-0.9-1.1-5.3-2.1-10.8
			c-1.8-10-4.3-24.1-6.8-29.7c-0.3-0.7-1.2-1.2-2.3-1.7c-3-1.3-7.9-1.9-9.1-2c-1.2-1-2.9-5.2-2.9-11.6l-0.5,0.1l-9.2,1.8
			c0,0,0.2,2.9,0.2,5.6c0,2.3-0.1,4.4-0.6,4.7c-0.7,0.1-1.1,0.1-1.1,0.1s-7.7,10.7-8.3,20.6s6.2,14.2-0.1,34.1
			c-6.3,20.3,36.7,7.5,34.4,2.2c-4.3-9.6-6.3-12.3-6.4-15.3c-0.1-2.1,0.9-4.4,2.7-9.3c0.2,0.6,0.3,1.2,0.5,1.8
			c1,3.8,1.9,7.2,2.3,8.9c1.1,5.2,13.2,25.3,13.2,25.3l0,0l0,0c0,0,0.4,0.2,0.8,1.5s3.8,7.7,5.3,7.7s1.8-2.2,2.1-3.6
			C1103.9,397.6,1102.3,395.8,1101.1,395z"/>
		<path class="st18" d="M1080.5,287.1c-2-1.3-5.3,0.2-5.3,0.2c1.1-1.6,5.3-1.1,5.3-1.1c-8.2-1.8-9.9,3.5-10.1,4
			c-6-5.4-15.5,6.1-15.5,6.1l13.7,18.1c0,0,1.2-2.9,2.9-2c2.6,1.4,7.5-4.3,6-11.8c-0.2-0.8-0.4-1.5-0.6-2.2c0.5,0.2,1.1,0.4,1.7,0.4
			c1.5,0,3.8-3.8,4.1-5.1C1082.9,292.6,1082.5,288.4,1080.5,287.1z"/>
		<path class="st19" d="M1058.7,314.8c0,0,0.2,2.9,0.2,5.6c5.2-0.1,7.9-4.9,9-7.5L1058.7,314.8z"/>
		<path class="st18" d="M1068.9,311.9c0,0,2.7-4.3,3.4-7.9c0.5-2.6-0.9-12.3-10.6-10.9c0,0-2.8,0.3-5.5,2.1
			c-2.1,1.4-5.2,4.5-1.8,12.9l0.9,2.9L1068.9,311.9z"/>
		<path class="st15" d="M1057,317.3c0,0,12.2,0.2,12.2-7.4c0-7.6,1.6-12.7-6.2-13.2c-7.8-0.5-9.3,2.5-9.9,5
			C1052.5,304.3,1053.8,317.1,1057,317.3z"/>
		<path class="st20" d="M1072.4,474.3c-3.1,12.2-7.7,21.6-7.7,21.6l-4-0.3c0,0,2-9.4,1.9-22.1c-0.1-8.9-1.2-19.4-4.7-29.4
			c-12-34.4-10.1-59.5-10.1-59.5l22.7,2.7l1.1,0.1c0.1,10.4,0.4,24.5,0.6,35.6c0.2,9.9,0.4,17.4,0.4,17.4
			C1076.8,449.8,1075.2,463,1072.4,474.3z"/>
		<path class="st19" d="M1080.2,355.5c-2.3,6.3-3.5,8.9-3.4,11.3c-7.3-11.3-20.5-13-20.5-13l25-2.9
			C1081.1,352.4,1080.8,354,1080.2,355.5z"/>
		<path class="st21" d="M1085.4,472.3c-1.3,13.9-7,22.9-7,22.9l-1.9,1.4c0,0-1.8-9.8-3.1-21.5c-1.2-11.1-2.9-22.8-4.8-26.4
			c-7.6-14.2-9.8-67.8-9.8-67.8l23-1.1c2.3,3.9,3.3,10.3,3.6,17.5c0.6,18.3-3.7,42.1-4.3,45.6c0,0,0,0,0,0c-0.1,0.3,0,0.5,0.2,0.8
			C1085.6,452.8,1086.3,463.1,1085.4,472.3z"/>
		<path class="st18" d="M1065.9,306.8c5.1,1.3,7.4-0.1,7.4-0.1s-0.4-5.2-4.8-8.6c-6.3-4.9-10.7-2.2-11-1.8c-0.8-0.7-2.2-1.2-4.1,1.1
			c-2.8,3.4-0.3,9.5-0.3,9.5c1.2,0.1,1.4-3.9,2-5.8c0.4-1.4,1.9-2.9,2.7-3.5c0.2,0.9,2.7,9.4,8.8,12.3c0,0-2.8-2.5-4.9-6
			C1063,305.3,1064.4,306.4,1065.9,306.8z"/>
		<path class="st22" d="M1039.5,500.5C1039.5,500.5,1039.5,500.5,1039.5,500.5l-1.3,0c0.1,0,0.2,0,0.3,0H1039.5z"/>
		<path class="st23" d="M1086.1,389c0,0.8,0,1.4-0.1,1.8c-0.5,1.5-2.2,2.2-6.2,1.8c-2.5-0.3-3.6-4.4-4.1-8c-1.5,5.1-3.6,7.9-6.3,8.5
			c-3.9,0.9-23.8,3.3-25.1-6.1c-1.4-10.4,2.8-28.8,3.1-38.7c-0.6-3.5-0.8-6.6-0.7-9.2c0.2-7.1,2.2-11,3.8-12.6
			c0.5-0.3,0.9-0.6,2.7-0.9c0.9-0.2,2.2-0.3,4-0.6c0,0,0.7-0.1,0.7-0.1c-0.3,0.6-4.8,7.4-4.5,9.2c0.4,1.8,16.3,0.2,17.4-0.8
			c1.1-1,2.8-8.7,2.8-8.7s5.6,0.6,8.4,2.6c0,0,0,0,0,0c0.3,0.2,0.6,0.5,0.7,0.8c2.9,5.6,5.9,19.8,8,29.9c-5,2.8-9.4,1.9-10.8,1.6
			C1081.8,371.2,1085.8,383.7,1086.1,389z"/>
		<path class="st17" d="M1057.2,325.2C1057.2,325.2,1057.2,325.2,1057.2,325.2c-0.6,0.9-9,14.4-9.8,23.2c-0.6-3.5-0.8-6.6-0.7-9.2
			c1.1-3.3,3.7-10.7,6.5-13.5C1053.6,325.4,1057.2,325.2,1057.2,325.2z"/>
		<g>
			<path class="st23" d="M1037.1,354.9l-3.6-10.7c-0.1-0.2-0.3-0.3-0.4-0.2l-5.6,1.9c-0.2,0.1-0.3,0.3-0.2,0.4l3.6,10.7
				c0.1,0.2,0.3,0.3,0.4,0.2l5.6-1.9C1037.1,355.3,1037.2,355.1,1037.1,354.9z"/>
			<path class="st6" d="M1035.8,355l-3.4-10.2c-0.1-0.3-0.5-0.5-0.8-0.4l-5.1,1.7c-0.3,0.1-0.5,0.5-0.4,0.8l3.4,10.2
				c0.1,0.3,0.5,0.5,0.8,0.4l5.1-1.7C1035.7,355.7,1035.9,355.3,1035.8,355z"/>
		</g>
		<path class="st15" d="M1085.4,472.3c-1.3,13.9-7,22.9-7,22.9l-2,1.8c0,0-1.8-10.2-3.1-21.8
			C1074.7,475.2,1080.7,475.5,1085.4,472.3z"/>
		<path class="st15" d="M1072.4,474.3c-3.1,12.2-7.7,21.6-7.7,21.6l-4-0.3c0,0,2-9.4,1.9-22.1
			C1063.9,474.2,1066.7,474.9,1072.4,474.3z"/>
		<g>
			<path class="st18" d="M1067,499.2h-2.6c-0.9-0.1-1.5-0.4-2.4-0.5c-1.3-0.2-2,0.4-2.1,0.5c0,0,0,0,0,0h-10.9c-0.3-0.4,0-1.3,0.2-2
				c0.2-0.5,0.6-0.8,1-0.9c1.2-0.3,3.4-0.6,5.5-2.5c1.2-1.1,5.7-3.9,5.7-3.9l0,0c0.1,0,0.6,0.1,2.6,1.9c1.1,0.9,2.9-1.3,2.9-1.3
				s0.3,0.3,0.6,0.8c0.2,0.4,0.4,1,0.2,1.7c-0.2,1,0.4,2.8,0.8,4c0.3,0.7,0.5,1.3,0.5,1.3S1069.3,498.9,1067,499.2z"/>
			<path class="st17" d="M1067.6,491.3c-0.6,0.4-1.9,1.3-2.8,1.4c-1.2,0.2-3.3-2.8-3.3-2.8l0,0c0.1,0,0.6,0.1,2.6,1.9
				c1.1,0.9,2.9-1.3,2.9-1.3S1067.4,490.8,1067.6,491.3z"/>
			<path class="st17" d="M1067,499.2h-2.6c-0.9-0.1-1.5-0.4-2.4-0.5c-1.3-0.2-2,0.4-2.1,0.5c0,0,0,0,0,0h-10.9c-0.3-0.4,0-1.3,0.2-2
				c0.3-0.3,0.4,1.3,0.6,1.5c0.2,0.3,8.9,0.1,9.4-0.3c0.5-0.4,2-1,4.1-0.5c1.8,0.4,4.5-0.7,5.2-1c0.3,0.7,0.5,1.3,0.5,1.3
				S1069.3,498.9,1067,499.2z"/>
		</g>
		<g>
			<path class="st18" d="M1080.8,499.2h-2.6c-0.9-0.1-1.5-0.4-2.4-0.5c-1.3-0.2-2,0.4-2.1,0.5c0,0,0,0,0,0h-10.9
				c-0.3-0.4,0-1.3,0.2-2c0.2-0.5,0.6-0.8,1-0.9c1.2-0.3,3.4-0.6,5.5-2.5c1.2-1.1,5.7-3.9,5.7-3.9l0,0c0.1,0,0.6,0.1,2.6,1.9
				c1.1,0.9,2.9-1.3,2.9-1.3s0.3,0.3,0.6,0.8c0.2,0.4,0.4,1,0.2,1.7c-0.2,1,0.4,2.8,0.8,4c0.3,0.7,0.5,1.3,0.5,1.3
				S1083,498.9,1080.8,499.2z"/>
			<path class="st17" d="M1081.4,491.3c-0.6,0.4-1.9,1.3-2.8,1.4c-1.2,0.2-3.3-2.8-3.3-2.8l0,0c0.1,0,0.6,0.1,2.6,1.9
				c1.1,0.9,2.9-1.3,2.9-1.3S1081.1,490.8,1081.4,491.3z"/>
			<path class="st17" d="M1080.8,499.2h-2.6c-0.9-0.1-1.5-0.4-2.4-0.5c-1.3-0.2-2,0.4-2.1,0.5c0,0,0,0,0,0h-10.9
				c-0.3-0.4,0-1.3,0.2-2c0.3-0.3,0.4,1.3,0.6,1.5c0.2,0.3,8.9,0.1,9.4-0.3c0.5-0.4,2-1,4.1-0.5c1.8,0.4,4.5-0.7,5.2-1
				c0.3,0.7,0.5,1.3,0.5,1.3S1083,498.9,1080.8,499.2z"/>
		</g>
		<path class="st24" d="M1086.1,389c-2.7-0.9-6.2-3.3-10.4-8.8c-11.1-14.4-0.9-31.3,0.4-31.6c1.4-0.3,3.9,10.9,3.9,10.9
			C1081.8,371.2,1085.8,383.7,1086.1,389z"/>
		<path class="st17" d="M1079.9,323.7c0,0-11.2,7.6-12,23.8c-0.8,16.2,13.7,19.4,13.7,19.4l-0.9-5.1c0,0-11.8-4.3-8.7-17.1
			c3.1-12.9,12.3-19.9,12.3-19.9L1079.9,323.7z"/>
		<path class="st15" d="M1026.7,348.4c0,0,1-2.2,3-1.3c1.9,0.9,1.1,4.2,0,5.3c-1.1,1.2-1.4,1.7-1.4,1.7L1026.7,348.4z"/>
	</g>
	<g>
		<path class="st25" d="M957.4,370.9c0,0-1.9,2.1-0.8,3.4c1.1,1.3,3,2.4,4.8,1.2c1.8-1.3,2.3-5.9,1.3-5.9
			C961.7,369.6,957.4,370.9,957.4,370.9z"/>
		<path class="st20" d="M961,351c0,0-5.3,17.3-4.2,19.9c1.1,2.5,4.7,2.1,6.8-0.9C965.6,366.9,961,351,961,351z"/>
		<path class="st21" d="M974.9,312.3c0,0-8.2,1.5-11.2,4.5c-3,3-10.2,12-5.7,41.9c0,0,0.4,9,10.5,9.9
			C978.6,369.5,974.9,312.3,974.9,312.3z"/>
		<path class="st15" d="M970.3,311.5c0.2-1.6,0.1-2.9,0-3.8v0c-0.1-0.6-0.1-1-0.1-1l0.1,0l9.8-3l0.2-0.1c0.1,3.2,0.3,5.6,0.5,7.3
			c0.2,2,0.5,3.2,0.7,3.9h-12C970,313.7,970.2,312.6,970.3,311.5z"/>
		<path class="st5" d="M966.5,291c0,0,1.1-16.1,22.1-10c4.8,1.4,4.1,15.7-7.4,21.2L966.5,291z"/>
		<path class="st15" d="M993.7,386.6c-1.4,9.8-10.9,35.3-10.6,44.1c0.2,6.9,0.1,23-0.8,33.6c-0.3,2.9-0.6,5.4-0.9,7.2
			c-0.8,3.9-1.9,8.5-2.4,11.3c-1.2,6.4-0.6,10.1-1.6,13.6c-1.1,3.8-14,3.1-10.1,0.8c1.4-0.8,3.4-2.5,4.4-4.8
			c3.6-8.1-1.5-43.1-3-56.6c-0.2-1.7-0.3-3-0.4-3.9c-0.5-8.3-6.2-63.8-6.2-63.8C975.9,360.4,995.1,376.8,993.7,386.6z"/>
		<path class="st25" d="M993.7,386.6c-1.4,9.8-10.9,35.3-10.6,44.1c0.2,6.9,0.1,23-0.8,33.6l-13.7-28.5c-0.2-1.7-0.3-3-0.4-3.9
			c-0.5-8.3-6.4-63.9-6.4-63.9C975.8,360.4,995.1,376.8,993.7,386.6z"/>
		<path class="st15" d="M963.6,369.9c0,0,11.9,54.8,13.3,63.1c1.4,8.2,12.2,47,9.9,56.7c-1.4,5.7-3.8,7.4-3.8,7.4
			c-0.6,1.1,8.9,3.1,9.6-0.9c1-5.1,1.2-12.3,2.6-24.4c2.4-20.9-2.4-32.8-3.6-41.6c-1.2-8.7,3.9-36.5,1.1-46
			C987.7,367.6,976.6,360.8,963.6,369.9z"/>
		<path class="st21" d="M995.4,420.3c0,0-3.1,0.5-7.7,0.8l-2.5-10l-0.9,10.2c-7.3,0.3-16.9-0.1-24-3l1.5-50.2c0,0,10.2,2.7,22.6-2
			C984.4,366.1,1000.5,378.6,995.4,420.3z"/>
		<path class="st20" d="M997.1,488.8c-0.6,3.2-0.7,9-0.7,10.5h-1l-0.1-7.6c-0.1,0.1-0.1,0.2-0.2,0.2c-0.9,1-2.1,5.9-3,7.4H981
			c-0.1-0.3,0-0.6,0.2-0.9v0c0.5-0.8,1.8-1.4,1.8-1.4s3.6,0.6,7.1-0.3c1.5-0.4,4-13.6,4-13.6s3.5,2.1,3.9,3.1
			C998.2,486.5,997.7,487.6,997.1,488.8z"/>
		<path class="st20" d="M981.7,489.4c-0.4,2.8-0.5,6.9-0.6,8.9v0c0,0.4,0,0.7,0,0.9h-1l-0.1-7.3c-0.9,1.1-2.1,5.9-2.9,7.3h-11.2
			c-0.4-1.2,1.9-2.4,1.9-2.4s3.6,0.6,7.1-0.3c1.5-0.4,4-13.6,4-13.6s3.5,2.1,3.9,3.1C983.1,486.6,982.5,488,981.7,489.4z"/>
		<path class="st26" d="M985.3,366.9c0,0-9.4,6.5-23.6,1.7c0,0-4.9-16.6-3.3-32.6c1-10.7,7.1-19.2,11.6-22.5c0.7,0.6,2,1.7,11.2-0.5
			c0,0,4.3,1.8,5,3.4C987.9,319.9,982.5,359.9,985.3,366.9z"/>
		<path class="st21" d="M989.3,372.1c-4.2,0.9-7.4-2.1-12.4-3.5c-1.7-0.5-3.1-1.1-4.2-1.7c-4.4-2.7-6.6-22.9-5.8-30.6
			c0.8-7.6,14.4-23.3,14.4-23.3c3.2,2.3,3.7,7.8,5.6,14.9C991.4,345.1,989.3,372.1,989.3,372.1z"/>
		<path class="st20" d="M989.3,372.1c-4.2,0.9-8.8-0.7-12.4-3.5c-1.8-2.6-3.3-5.8-4.1-9.6c-2.3-11.1,6.6-23.2,14.1-31.1
			C991.4,345.1,989.3,372.1,989.3,372.1z"/>
		<path class="st19" d="M980.2,303.6c-1.1,1.9-4.7,7.1-9.9,7.9c0.2-1.6,0.1-2.9,0-3.8v0c-0.1-0.6-0.1-1-0.1-1l0.1,0L980.2,303.6z"/>
		<path class="st15" d="M967.6,307.3c0,0,12.2,2.5,13.6-5.2c1.4-7.6,3.9-12.5-3.8-14.3s-9.8,0.7-10.9,3.2
			C965.4,293.4,964.4,306.5,967.6,307.3z"/>
		<path class="st5" d="M985.4,289c-4.1-5.1-9.2-4.5-11.9-3.6c-0.5-0.1-1.3-0.2-2.3-0.2c-8-0.2-5.8,9-5.8,9c0.3-5.8,5.3-6.4,5.3-6.4
			s0.1,0,0.2-0.1c-0.4,1.6-0.3,4.2,3.6,6.7c6.3,4,5.8,11.9,4.1,14.1C978.7,308.5,991.3,296.3,985.4,289z"/>
		<path class="st18" d="M962.3,381.2c-1-4.2-2.1-6.4-3.4-6.7c-0.4-0.1-0.8,0-1.1,0.2c-1,0.7-1.9,3-2.6,6.9c-0.5,2.8-0.8,5.4-0.8,5.4
			l0.8,0.1c0,0,0.3-2.6,0.8-5.4c0.9-4.7,1.8-6,2.3-6.3c0.2-0.1,0.3-0.1,0.4-0.1c1.8,0.4,3.3,7.6,3.9,12l0.8-0.1
			C963.4,387.1,963,384.2,962.3,381.2z"/>
		<g>
			<path class="st18" d="M972.1,402.4l-1.8-12.1c-0.4-2.6-2.6-4.5-5.2-4.5h-12.9c-1.2,0-2.1,0.9-2.1,2.1v14.8c0,1.2,0.9,2.1,2.1,2.1
				H970C971.3,404.9,972.3,403.7,972.1,402.4z"/>
			<path class="st5" d="M963.2,385.8h-11.4c-1.1,0-2,0.8-2.2,1.8l-2.8,14.5c-0.3,1.4,0.8,2.7,2.2,2.7h12.2c1.1,0,2.1-0.8,2.3-2
				l2-14.5C965.7,387,964.6,385.8,963.2,385.8z"/>
		</g>
		<path class="st27" d="M963.3,373.2c0,0-5.3,1.4-5.6,2.5c-0.3,1.1,1.5,4.2,4.5,3.5c3-0.7,5.4-4.3,5.4-4.3L963.3,373.2z"/>
		<path class="st21" d="M981.3,313c0,0,7.8,1,11.5,8.7c3.7,7.7-3.2,35.4-4.2,37.2c-1,1.9-12.6,16.8-22.5,18c0,0-4.2-1.5-4.1-3.9
			c0,0,16.2-16,17.3-18.3c1.1-2.3-0.5-27.4-0.3-30.7S981.3,313,981.3,313z"/>
	</g>
	<g>
		<path class="st28" d="M338.9,251.8c0,0-10.1-8.3-12.8,4.3c-2,9.4,9.1,9.1,9.1,9.1L338.9,251.8z"/>
		<path class="st21" d="M347.6,252.5c0,0-6.9-5.6-14.9-0.8c-8,4.8-1.5,23.8,3.4,24.9c5,1.1,17.6-17.8,17.6-17.8
			S353.4,257.1,347.6,252.5z"/>
		<path class="st29" d="M389.1,352.1c0,0,3.3-1.1,4.9-0.8c1.6,0.3,6.5,2.6,6.7,3.1c0.1,0.5,0,0.9,0,0.9h-11.6c0,0-2.6-0.5-3-2
			C385.6,351.8,389.1,352.1,389.1,352.1z"/>
		<path class="st29" d="M346,497.7c0.1,0.9,0.6,1.6,1.4,1.9c0,0,0,0,0,0c1.5,0.7,4.1,0.5,6.9,0.1c0.4,0,0.7-0.1,1-0.1
			c0.1,0,0.2,0,0.2,0c0.1,0,0.1,0,0.2,0c2.8-0.2,2.6,0.7,7.9,0.6c6,0,8.1-2.1,8.4-2.9c0.2-0.7-2.4-1.3-5.4-2c-0.1,0-0.3-0.1-0.4-0.1
			c-0.4-0.1-0.8-0.2-1.2-0.3c-3.5-0.8-7-1.9-8.2-5.3c-1.2-3.6-0.9-14.3-0.9-14.3h-10.7c0,0,2.8,11.8,2.5,15.2
			c-0.2,1.8-1,2.3-1.4,3.9c0,0.1,0,0.2-0.1,0.3C346.1,495.8,345.9,496.7,346,497.7z"/>
		<g>
			<path class="st30" d="M333.5,382.3c0.9,5.1,2.2,10.3,3.3,15.8c1.8,8.8,3.2,18.1,1.8,28.1c-0.2,1.3-0.3,2.7-0.3,4.2
				c-0.3,17.7,7.7,49.9,7.7,49.9s2.2,0.9,5.8,0.7c1.9-0.1,4.7-1.3,4.7-1.3s0.7-19.9,0.8-46.7c0-19.4,3.8-45,4.6-60
				c0.5-9.1-0.5-21.2-0.5-21.2s-15.8-12.7-21.5-6.2C334.2,352.1,330.1,363.3,333.5,382.3z"/>
		</g>
		<path class="st31" d="M338.6,426.2c-0.2,1.3-0.3,2.7-0.3,4.2c11.8-17.1,14.4-54.5,14.4-54.5l-13,6.3c0,0-1.4,7-2.9,15.8
			C338.6,406.9,340,416.2,338.6,426.2z"/>
		<path class="st29" d="M311.8,497.7c0.1,0.9,0.6,1.6,1.4,1.9c0,0,0,0,0,0c1.5,0.7,4.1,0.5,6.9,0.1c0.4,0,0.7-0.1,1-0.1
			c0.1,0,0.2,0,0.2,0c0.1,0,0.1,0,0.2,0c2.8-0.2,2.6,0.7,7.9,0.6c6,0,8.1-2.1,8.4-2.9c0.2-0.7-2.4-1.3-5.4-2c-0.1,0-0.3-0.1-0.4-0.1
			c-0.4-0.1-0.8-0.2-1.2-0.3c-3.5-0.8-7-1.9-8.2-5.3c-1.2-3.6,0.5-14.1,0.5-14.1l-9.9-0.8c0,0,0.6,12,0.3,15.4
			c-0.2,1.8-1.1,2.8-1.4,4.4c0,0.1,0,0.2-0.1,0.3C311.9,495.8,311.7,496.7,311.8,497.7z"/>
		<path class="st30" d="M313.2,481.2c0,0,2.6,1.2,4.4,1.6c1.8,0.4,5.7-0.4,5.7-0.4c0.7-7.7,2.3-19.8,5.4-33.4
			c3.5-15.5,8.8-33.8,16.1-51.2c1.6-3.7,8-21.2,9.1-25.7c3.3-13.4,0-11.9,0-11.9l-29-3.4c0,0-3.6,1.8-5.2,20.7
			c-0.5,5.7-0.6,30.1-1.3,34.7c-0.7,4.4-1.5,8-2.5,10.4C310.5,435.9,313.2,481.2,313.2,481.2z"/>
		<path class="st32" d="M311.8,497.7c0.1,0.9,0.6,1.6,1.4,1.9c0,0,0,0,0,0c1.6,0.6,4.2,0.5,6.9,0.1c0.4,0,0.7-0.1,1-0.1
			c0.1,0,0.2,0,0.2,0c0.1,0,0.1,0,0.2,0c2.8-0.2,2.6,0.7,7.9,0.6c6,0,8.1-2.1,8.4-2.9c0.2-0.7-2.4-1.3-5.4-2
			c-0.8,0.4-4.5,2.1-9.1,1.6c-4.1-0.4-8.2-2-11.2-2.4c0,0.1,0,0.2-0.1,0.3C311.9,495.8,311.7,496.7,311.8,497.7z"/>
		<path class="st32" d="M346,497.7c0.1,0.9,0.6,1.6,1.4,1.9c0,0,0,0,0,0c1.6,0.6,4.2,0.5,6.9,0.1c0.4,0,0.7-0.1,1-0.1
			c0.1,0,0.2,0,0.2,0c0.1,0,0.1,0,0.2,0c2.8-0.2,2.6,0.7,7.9,0.6c6,0,8.1-2.1,8.4-2.9c0.2-0.7-2.4-1.3-5.4-2
			c-0.8,0.4-4.5,2.1-9.1,1.6c-4.1-0.4-8.2-2-11.2-2.4c0,0.1,0,0.2-0.1,0.3C346.1,495.8,345.9,496.7,346,497.7z"/>
		<path class="st29" d="M352.8,290.6c-0.2,0-1.6-0.2-4-0.4c-0.4-1.2-0.7-2.5-0.9-3.7c-0.3-2.2-0.2-4.2-0.1-5.4c0.1-0.6,0.1-1,0.1-1
			l-11.9-3.6c-0.1,3.1-0.3,5.6-0.5,7.5c-0.6,5.6-1.2,6.7-1.4,6.9c-3,0.4-6.3,1.1-9.9,2c0,0,9.6,43.9,6.3,52.2
			c-3.3,8.3-4.5,15.6-4.5,15.6l35.3,0.4c0,0-0.5-28.4,1.1-38.5C364.2,312.7,352.8,290.6,352.8,290.6z"/>
		<path class="st33" d="M348,286.5c-9-0.2-11.8-9.9-11.8-9.9l11.9,3.6c0,0-0.1,0.4-0.1,1C347.8,282.3,347.7,284.3,348,286.5z"/>
		<path class="st34" d="M326.7,339.6c-0.5,5.8-6,19.1-4.8,21.9c1.2,3,2.9,4.5,6.7,5.3c2.6,0.6,6.1,0.9,11.1,1.1
			c10.6,0.5,22.1-0.8,23.6-5.9c0.7-2.4,0.5-11.8,0.1-16.2c-0.8-9,0.9-21.9,1.1-30.2c0.2-7-4-22.8-4-22.8s-1.9-1.2-7.8-2.4
			c0,0-0.6,8.2-4.9,8.9c-7.4,1.2-13.4-5.6-15.1-8.3c0,0-8.5,2.2-11,5c-2.4,2.7,0.9,22.7,1.6,24.6c0.6,1.6,1.2,3.3,1.7,4.9
			C326.4,330,327.2,334.3,326.7,339.6z"/>
		<path class="st29" d="M296.4,352.1c0,0-3.3-1.1-4.9-0.8c-1.6,0.3-6.5,2.6-6.7,3.1c-0.1,0.5,0,0.8,0,0.8h11.6c0,0,2.6-0.5,3-2
			C299.9,351.8,296.4,352.1,296.4,352.1z"/>
		<path class="st29" d="M351.1,281c0,0-14.2,2.9-15.9-6c-1.6-8.9-4.6-14.5,4.4-16.7c9-2.2,11.4,0.9,12.7,3.7S354.8,280,351.1,281z"
			/>
		<path class="st35" d="M346.7,276.7c0,0,0.4,1.1,3.1,0.6c0,0,2.2-0.4,2-1.6C351.8,275.6,349.5,275,346.7,276.7z"/>
		<path class="st30" d="M349.9,340.3c-1.9-11.5-7.2-21.9-7.2-21.9l-7.4-15.4c0.3-2.5-2.5-9.3-2.7-11.8c0,0-8.4,0.3-12.3,3.5
			c-4.4,3.6-7.4,15.4-12.7,36.2c0,0-8.9,14.8-11.7,20.7c0,0,0.5,0.8,1.6,1.4c1,0.6,2.3,0.8,2.3,0.8s16-15.7,17.1-18.1
			c0.5-1.1,3.7-5.6,7.1-12.2c0,0,0,0,0,0c0.6,5.1,1.3,9.6,1.7,11.5c1.5,6.1-9.2,34.3-8.7,36c0.2,0.6,3.9,0.9,8.8,0.9
			c8.7,0,21.1-0.9,23.3-2.6C350.8,367.9,352.1,353.5,349.9,340.3z"/>
		<path class="st5" d="M333.3,291.1l9.5,27.2l-9.5-9l0.7-2.8c0,0-2.2,0.2-3.1-0.4s-2.9-14.5-2.9-14.5s1.3-0.4,2.6-0.5
			C332,291.1,333.3,291.1,333.3,291.1z"/>
		<path class="st30" d="M377.9,330.6c-7.3-17-8.3-32.9-12.7-36.5c-3.9-3.2-12.3-3.5-12.3-3.5c0,0,0,0,0,0l0,0l0,0.1
			c1,5.7,2,8.7,1.7,14.8c-0.3,6.2-1.8,12.9-1.8,12.9S346,370,347,370.1c7.6,0.7,18.3-7,18.3-7c-2.3-6.2-1.5-35.6-1.5-35.6
			c0,0.1,0.1,0.1,0.1,0.2c2.4,4.1,4.3,7,4.6,7.8c1.1,2.5,17.1,18.3,17.1,18.3s1.3-0.2,2.3-0.8c0.1-0.1,0.2-0.1,0.3-0.2
			c0.9-0.6,1.3-1.2,1.3-1.2C386.8,345.6,377.9,330.6,377.9,330.6z"/>
		<path class="st5" d="M352.8,290.6c0,0,2,21.5-0.1,27.8c0,0,5.9-9.3,4.8-11.2l-2.1-1.4c0,0,4.1-0.5,3.3-2.9
			c-0.8-2.4-3.9-12.1-3.9-12.1s-0.5-0.2-0.9-0.2C353.2,290.6,352.8,290.6,352.8,290.6z"/>
		<path class="st5" d="M333.5,341.3c0,6.6-4,23.3-7.7,30.6c-4.9,0-8.6-0.3-8.8-0.9c-0.5-1.7,10.2-29.9,8.7-36
			c-0.5-1.9-1.1-6.4-1.7-11.5C327.3,327.3,333.5,335.2,333.5,341.3z"/>
		<path class="st5" d="M388.3,352.8c-0.1,0.1-0.2,0.1-0.3,0.2c-1,0.6-2.3,0.8-2.3,0.8s-16.1-15.8-17.1-18.3
			c-0.3-0.8-2.2-3.6-4.6-7.8c-0.4-3.1-1.3-11.1,0.3-13.1c2-2.4,6.7,17.6,8.3,19.9C373.7,336.3,385,347.5,388.3,352.8z"/>
		<path class="st21" d="M352.5,256.7c-7-6.9-11.1-6.7-14.1-4.5c-1.9,1.4-4.8,6.1-5.8,7.5c-2,2.8,2.6,16.4,2.6,16.4
			c-0.2-1.3-0.2-2.5-0.1-3.6c0.4,2,0.9,3.4,0.9,3.4s2.8-6.5,7.5-11.6c1.4-1.6,2.4-3,3.1-4.1c4.5,1.7,6.9,8.8,6.9,8.8
			C355.1,265.5,355.5,259.7,352.5,256.7z"/>
	</g>
	<g>
		<path class="st21" d="M509.1,405.6c-31.4,0-50.5-19.5-51.4-20.4l6.5-6.2l-3.2,3.1l3.2-3.1c0,0,4.8,4.9,13.3,9.5
			c11.2,6.1,23.1,8.8,35.6,8c30.1-1.8,43.5-17.7,43.6-17.9l7,5.7c-0.6,0.8-16.1,19.2-50,21.2C512.1,405.5,510.6,405.6,509.1,405.6z"
			/>
	</g>
	<g>
		<path class="st15" d="M906,386.6c-0.2-4-5.6-6-5.6-6c-2.7-1.6-2.5-20.5-3.5-31.5c-0.2-2.7-0.5-4.9-0.8-6.3c-1.6-7-2-31.8-6.7-35.7
			c-4.7-3.9-15.5-5.5-15.5-5.5s3.5,18.7,7.3,38.3c4.1,21.3,14.2,41.6,15.1,42.4c0,0,0,0,0,0c0.9,1.9,3.3,4.6,4.6,5.4
			c1.6,1,0.7,3.1,2.6,3.4C905.9,391.1,906,388.7,906,386.6z"/>
		<path class="st15" d="M874,299.1l0,1.5c0,0,0.4,4.8-5.5,5.5c-5.9,0.7-10.4-1.9-10.2-5.6c0.5-2.9,1.1-4.8,1.2-7.2
			c0-0.9,0-1.8-0.2-2.9l11.5-0.2l3.4,0.6L874,299.1z"/>
		<path class="st19" d="M874,290.8l0,8.3c-1.2,0.6-2.6,0.9-4.1,0.9c-5.3,0-8.7-3.9-10.4-6.7c0-0.9,0-1.8-0.2-2.9l11.5-0.2L874,290.8
			z"/>
		<path class="st15" d="M874.7,294.9c0,0-14.7,3-16.4-6.2c-1.7-9.2-4.7-15,4.5-17.2c9.3-2.3,11.8,0.9,13.1,3.8
			C877.2,278.2,878.4,293.9,874.7,294.9z"/>
		<path class="st3" d="M873.8,301.4c0,0,2,10.8,4.7,24.5c0.8,4.4,1.7,9,2.7,13.7c3.7,7.3,6.9,12.3,7.9,11.4c2-1.9,5.6-2.1,7.8-2.1
			c-0.2-2.7-0.5-4.9-0.8-6.3c-0.1-0.6-0.2-1.2-0.4-2c-1.3-8.8-2-30.2-6.4-33.7C884.7,303.1,873.8,301.4,873.8,301.4z"/>
		<path class="st36" d="M889.1,351.1c2-1.9,5.6-2.1,7.8-2.1c-0.2-2.7-0.5-4.9-0.8-6.3c-0.1-0.6-0.2-1.2-0.4-2l-11.2-27
			C884.5,313.6,888.1,352,889.1,351.1z"/>
		<path class="st18" d="M863.9,499.2c0,0-0.6-4.4-1.9-6.9c-1.3-2.5-9.4-0.9-9.4-0.9s-1.6,1.4-2,7.9H863.9z"/>
		<path class="st18" d="M891.4,499.2c-1.9-1.2-0.8-9.6-0.8-9.6s8.8-7.1,10.1-1.7c1.2,5.4,8.4,7.9,12.5,8.5c2.8,0.5,3,1.8,3.3,2.7
			H891.4z"/>
		<path class="st5" d="M873.1,436.6c0.4,2,0.6,3.6,0.6,4.8c0.8,16,13.5,52.7,15.8,53.6c3.5,1.3,9-1.5,11.9-2.4
			c1.2-0.4,2-1.6,1.7-2.8c-6.3-28.9-8.6-70.5-9.4-95.1c-0.4-12.4-2.6-21-2.6-21s-30.9-8.3-31.1,2.2
			C859.9,385.1,870.3,421.4,873.1,436.6z"/>
		<path class="st18" d="M873.1,436.6l20.7-41.9c-0.4-12.4-2.6-21-2.6-21s-30.9-8.3-31.1,2.2C859.9,385.1,870.3,421.4,873.1,436.6z"
			/>
		<path class="st5" d="M879.9,375.9l-16.4,118.5c0,0-7.2,1.7-12.8,0.3c0,0-4.8-63-4.4-78.3c0.4-15.2-3.4-40.8,0.9-43.6
			C851.6,370.1,879.9,375.9,879.9,375.9z"/>
		<path class="st37" d="M845,372.9c-0.1,1.4,1,2.5,2.4,2.5l25.8,0.4l18.9,0.3c0.9,0-1.9-7.1-2-53.3c0-10.3-16-21.4-16.3-21.4l0,0
			c0,1.5-2.3,4.2-5.9,4.5c-4.3,0.3-9.5-1.8-9.5-4.3c0,0-0.5,0.5-1.3,1.7c-2.1,3.1-6.4,10.7-9.2,23.9c-2.2,10.4-1.3,24.4-2.9,42.4
			C844.8,370.9,845,372,845,372.9z"/>
		<path class="st3" d="M845.9,375.6c0,0,3.4,1.5,9.8,2.9c4.8,1,11.2,1.9,19.1,1.9c12.5,0.1,17.3-4.2,17.3-4.2c0.9,0-1.9-7.1-2-53.3
			c0-10.3-16-21.4-16.3-21.4l0,0c0,0,0.4,13.7-3.7,17.8c0,0-5.8-4.5-13.4-17.3c-2.1,3.1-6.1,12.1-8.8,25.3c-0.6,2.7-0.9,5.6-1.2,8.8
			c-0.7,9.1-0.6,20.3-1.7,33.6c-0.1,1.3,0.1,2.5,0,3.4C844.9,374.3,844.5,375.6,845.9,375.6z"/>
		<path class="st36" d="M845.9,375.6c0,0,3.4,1.5,9.8,2.9c2-3.1,4.6-8.6,4.9-17.4c0.6-14.8-13.4-33.8-13.4-33.8l-0.5,8.7
			c-0.7,9.1-0.6,20.3-1.7,33.6c-0.1,1.3,0.1,2.5,0,3.4C844.9,374.3,844.5,375.6,845.9,375.6z"/>
		<path class="st21" d="M883.2,331.2l-18.4-10.6c-1.5-0.9-3.5-0.4-4.3,1.2L844.6,349c-0.9,1.5-0.4,3.5,1.2,4.3l18.4,10.6
			c1.5,0.9,3.5,0.4,4.3-1.2l15.8-27.3C885.2,334,884.7,332,883.2,331.2z"/>
		<path class="st15" d="M880,345.9c-0.4-1.2-4.5-2.7-6-2.7c-1.4,0-5,3.4-5.1,3.5c-1,0-11.2-0.5-18.8-1.6c-2-0.3-3.8-0.6-5.2-1
			c-1.7-0.5,6.9-22.3,11.2-35.2c1-3.1,1.8-5.6,2.2-7.3c0,0-0.8,0.1-2,0.4c-3.4,0.7-10.3,2.2-13.2,4.5c-4,3-13.9,36.8-7.8,49.9
			c0,0,4.9,0.5,13.3-0.4c6-0.6,13.8-1.9,22.9-4.6c0.2,0,0.4,0,0.6,0c1.3-0.1,6.1-1.3,7.3-1.7C880.6,349.1,880.4,347,880,345.9z"/>
		<path class="st3" d="M835.4,356.2c0,0,4.9,0.5,13.3-0.4c-0.5-2.3-0.9-6.7,1.5-10.9c-2-0.3-3.8-0.6-5.2-1
			c-1.7-0.5,6.9-22.3,11.2-35.2c0.3-4.2,0.5-6.9,0.5-6.9l-0.3,0c-3.4,0.7-10.3,2.2-13.2,4.5C839.2,309.4,829.3,343.2,835.4,356.2z"
			/>
		<path class="st36" d="M870.1,319.2c0,0-11.7-5.1-11.8-5.5c-0.2-0.4,0.6-3.5,1.4-4.4c0,0-5.6,0.5-5.9-0.2c-0.3-0.7-0.5-6.5-0.5-6.5
			s2.2-2.3,5.1-2.5c0,0,2.5,6.3,3.5,8.1C864.2,313.1,870.1,319.2,870.1,319.2z"/>
		<path class="st36" d="M872.8,309c0,0-0.8,6-2.8,10.2c0,0,6.1-4.2,6.6-5.6s-1.5-4.1-1.5-4.1s3.6-0.1,3.7-1.3c0.1-1.2-1.1-6-1.1-6
			s-3-2.3-3.8-2.2L872.8,309z"/>
		<path class="st18" d="M878.8,268.4c0,0-4.1-0.3-8.9-2.4c-3.9-1.7-8.9,0.2-10.5,1c0-0.3,0.1-0.6,0.4-1c0,0-0.7,0.5-0.8,1.2
			c-0.1,0.1-0.1,0.1-0.1,0.1c0,0-0.8-0.1-1.3,0.1c0,0,0.4-0.1,0.5,0.2c0,0,0,0,0.1,0.1c-6.1,3-6.7,12.6-4.7,14.8
			c2.4,2.7,5.2,8.7,5.2,8.7s1-1.4,0.6-3.8c-0.4-2.4,1.6-2.4,4.2-3.4c2.6-1.1,0.4-4.1,2.7-5.9c2.3-1.8,10.5-0.8,10.4-2.2
			C879.6,274.9,878.8,268.7,878.8,268.4z"/>
		<path class="st38" d="M864.4,340.2c-0.8,0-1.5,0.7-1.5,1.5c0,0.8,0.7,1.5,1.5,1.5c0.9,0,1.5-0.7,1.5-1.5
			C865.9,340.9,865.3,340.2,864.4,340.2z"/>
		<g>
			<g>
				<path class="st6" d="M927.9,493.6c-0.9,2,0.1,4.4,2.1,5.3c2,0.9,4.4-0.1,5.3-2.1c0.9-2-0.1-4.4-2.1-5.3
					C931.1,490.7,928.7,491.6,927.9,493.6z"/>
				<path class="st23" d="M927.5,493.6c-0.9,2,0.1,4.4,2.1,5.3c2,0.9,4.4-0.1,5.3-2.1c0.9-2-0.1-4.4-2.1-5.3
					C930.7,490.7,928.4,491.6,927.5,493.6z"/>
			</g>
			<g>
				<path class="st6" d="M895.6,493.6c-0.9,2,0.1,4.4,2.1,5.3c2,0.9,4.4-0.1,5.3-2.1c0.9-2-0.1-4.4-2.1-5.3
					C898.9,490.7,896.5,491.6,895.6,493.6z"/>
				<path class="st23" d="M895.3,493.6c-0.9,2,0.1,4.4,2.1,5.3c2,0.9,4.4-0.1,5.3-2.1c0.9-2-0.1-4.4-2.1-5.3
					C898.5,490.7,896.1,491.6,895.3,493.6z"/>
			</g>
			<path class="st6" d="M936.2,493.1l-5.7,2.1c-0.6,0.2-1.2,0.3-1.8,0.3l-32.4-0.3l-3.5-5.9L936.2,493.1z"/>
			<path class="st6" d="M914.6,393.2c-0.1-0.8-1.2-8.6-10.5-8.8l-6.8-0.7c-0.4-0.1-3.3-0.6-5.5,1.1c-1.5,1.1-2.3,2.9-2.4,5.4
				c-0.2,3.1,3.8,23.5,5.6,32.6l-12.1,2.4c0,0-5.1,2.1-4.1,11c0.9,7.9,4.8,52,4.8,52s0.8,9.2,20.4,6.5l-3.6-73l-3.7,0.7
				c-2.4-11.9-5.7-29.5-5.6-32.2c0.1-1.9,0.7-3.3,1.7-4.1c1.7-1.3,4.1-0.8,4.1-0.8l6.9,0.7l0.1,0c8.2,0.2,8.8,7,8.9,7.3l0,0
				l5.8,31.7l1.7-0.3L914.6,393.2z"/>
			<path class="st23" d="M890.7,433.8l4.7,49.4c0.2,2,0.9,3.8,2,5.4c2,2.9,5.3,4.7,9.1,4.7l16.2,0.1l0.4,0l10.2,0.1
				c1,0,2-0.1,2.9-0.4c0.2-0.1,0.4-0.1,0.6-0.2c3.5-1.2,6.2-4,7.2-7.6c0.4-1.5,0.5-3.1,0.3-4.8l-7.4-47.3c-0.8-5-4.9-8.9-10-9.4
				l-2.9-0.3l-0.7-0.1l0,0l-0.6-0.1l-9.6-0.9l-1.2-0.1l-9.2-0.9c-1.5-0.1-2.9,0-4.2,0.4c-0.1,0-0.2,0.1-0.3,0.1l-0.5,0.2
				C893.4,424,890.2,428.6,890.7,433.8z"/>
			<path class="st24" d="M897.4,488.6c2,2.9,5.3,4.7,9.1,4.7l16.2,0.1l0.4,0l10.2,0.1c1,0,2-0.1,2.9-0.4c0.2-0.1,0.4-0.1,0.6-0.2
				c3.5-1.2,7.6-5.4,7.6-9.9c0,0-34.3-0.4-41.5,0.7C899.3,484.2,898.2,486.8,897.4,488.6z"/>
			<g>
				<path class="st6" d="M939.9,485c-0.3-2-6.9-48.8-7.9-52.9c-0.9-3.7-6.2-7.3-7.9-8.4l-0.7-0.1l0,0l-0.6-0.1
					c0.1,0,7.6,4.6,8.6,8.7c1,4.1,7.8,52.4,7.9,52.9c0,0,0.2,4.7-3.7,8.2l0.5-0.1c0.2-0.1,0.4-0.1,0.6-0.2
					C940.5,489.3,940,485.2,939.9,485z"/>
				<path class="st6" d="M918.8,432.1c-0.8-5-3.8-8.1-5.5-9.5l-1.2-0.1c1.1,0.7,5.2,3.9,6.1,9.7c1,6.8,5.1,56.2,5.1,56.7l0,0l0,0
					c0,0,0.6,2.7-1.1,4.5l0.4,0l0.4,0c1.6-1.9,1-4.3,0.9-4.7C923.8,487.3,919.8,438.8,918.8,432.1z"/>
				<path class="st6" d="M904.8,431.8c-1-6.3-5.2-9.3-6.1-9.8c-0.1,0-0.2,0.1-0.3,0.1l-0.5,0.2c0,0,1.6,0.9,2.9,2.4
					c1.3,1.5,2.8,3.9,3.3,7.2c1,6.8,4.2,56,4.3,56.5l0,0l0,0c0,0,0.1,3-1.5,4.8l1,0c1.3-1.7,1.2-4.6,1.1-5
					C909,486.8,905.8,438.6,904.8,431.8z"/>
			</g>
		</g>
	</g>
	<g>
		<g id="man_1_">
			<g>
				<path class="st18" d="M680.3,486.9c-0.8,2.6-4.4,4.4-4.9,7.6c-0.4,2.5-1.6,4.1-3,4.7h-9.7c-0.2-0.6-0.5-2.1,1.9-2.7
					c3.1-0.7,4.3-4.5,4.1-8c-0.1-1.5,0-3.2,0-4.6c0.1-2,0.3-3.6,0.3-3.6l6.6-1.6l0.7,0.9l0.7,0.9
					C677.1,480.6,681.1,484.3,680.3,486.9z"/>
				<path class="st18" d="M627.4,499.2h-22.8c0.3-0.8,1.1-2.1,3.5-2.5c3.5-0.6,9.6-2.6,10.9-7.1c0-0.1,0.1-0.3,0.1-0.4
					c1.1-4.8,8.9,1.5,8.9,1.5s0,0.2,0.1,0.5C628.2,492.9,628.6,498.1,627.4,499.2z"/>
				<path class="st5" d="M609,371.5c0,0,1.2,14.8,2.6,32.6c1.9,24.2,4.2,53.8,4.4,59.4c0.4,9.8,2,25.4,2,25.4s3.7,3.7,11.1,2.1
					c0,0,6.6-22.3,8.5-45.9c0-0.4,0.1-0.8,0.1-1.2c1.8-24,4.5-74.6,4.5-74.6L609,371.5z"/>
				<path class="st18" d="M609,371.5c0,0,1.2,14.8,2.6,32.6l26,41.1c0-0.4,0.1-0.8,0.1-1.2c1.8-24,4.5-74.6,4.5-74.6L609,371.5z"/>
				<path class="st5" d="M614.4,373.2c0,0,21.4,53.6,35.4,78.8c14.1,25.2,18.4,32.2,18.4,32.2s8.1-3.2,8.8-5.4
					c0,0-5.4-48.6-14.8-60.5c-5.3-6.7-11.6-26.8-11.9-33.8c-0.3-7-1.9-20.9-1.9-20.9L614.4,373.2z"/>
			</g>
			<path class="st39" d="M592.8,358.4l-1.2,2.4c0,0-6.2,0.9-4.5,7.3c0,0,0.9,2.7,2.6,1.8c1.7-0.8,0.9-0.8,3.3-1.9
				c2.5-1.1,3.9-3.3,3.3-5.3l0.4-2.1L592.8,358.4z"/>
			<path class="st40" d="M625.4,290.5c-1-5.6-1-8.9-1-8.9l10.8-8.7c-0.4,12,7.3,17.8,7.3,17.8s-14.5,7.1-22.8,4.5
				C619.7,295.1,621.8,292.5,625.4,290.5z"/>
			<path class="st39" d="M621.8,281.4c0,0,13.8,2.3,15.1-6.3c1.3-8.6,3.9-14.1-4.8-15.9c-8.8-1.8-11,1.2-12.1,4
				C618.9,265.9,618.3,280.6,621.8,281.4z"/>
			<path class="st18" d="M636.8,275.7c0,0-0.3-11.5-12.8-13.4c-8.6-1.3-3.4-8.5-2.4-9.6c0,0,6.6,1.3,13.3,2.7
				C649,258.5,638.3,273.9,636.8,275.7z"/>
			<path class="st41" d="M594.2,361.8c-1.8-1.9-3.2-4.4-3.2-4.4S606.7,338,608,336c1.3-2,10.8-34.4,10.8-34.4l24.1-4.9
				c0,0-20.1,41.5-23.4,46.5c-5.5,8.4-22,20.8-22,20.8S595.7,363.3,594.2,361.8z"/>
			<path class="st42" d="M608.1,372.7c0.3,0.2,0.5,0.3,0.9,0.3c3.1,0,12.3,1.7,20,0.9c6.5-0.6,12.3-2.6,18.5-5.3
				c0.8-0.4,2.7-1.4,2.7-2.3c0-1-0.1-2.5-0.3-4.3c-0.4-6.4-1.2-17.4-0.5-30.1c0.1-2.4,0.2-4.7,0.2-7c0.1-17.2-3.3-32.6-10.2-37.7
				c-0.6-0.4-4.2,1.6-7.5,3.2c-3.1,1.5-6.1,1.7-9,1.1l-2.9,2.6c-3.5,3.3-7.4,7.7-9,14.4c-1.4,5.7-2.3,16.1-2.7,26.8
				c-0.2,4.9-0.4,9.7-0.4,14.4v0.2c0,0.5,0,1,0,1.4C607.7,363.1,607.9,372.5,608.1,372.7z"/>
			<path class="st41" d="M649.9,362c-0.4-6.4-1.2-17.4-0.5-30.1c0.1-2.4,0.2-4.7,0.2-7c-2.9-6.9-5.2-12-5.2-12h-7.2
				C637.3,312.9,632,349,649.9,362z"/>
			<g>
				<path class="st6" d="M705.7,395.1l-5.6-18c-1.7-5.4-7.5-8.4-12.9-6.8l-41.5,12.9c-5.4,1.7-8.4,7.5-6.8,12.9l5.6,18
					c1.7,5.4,7.5,8.4,12.9,6.8L699,408C704.4,406.3,707.4,400.5,705.7,395.1z"/>
				<path class="st23" d="M711.3,393.6l-5.7-18.2c-1.7-5.4-7.5-8.5-12.9-6.8l-14.3,4.4l-1.2-3.9c-0.6-1.8-2.5-2.8-4.3-2.2l-0.8,0.3
					l-7.4,2.3l-4.2,1.3c-0.9,0.3-1.6,0.9-2,1.7c-0.4,0.8-0.5,1.7-0.2,2.6l1.2,3.9l-8.3,2.6c-0.3,0.1-0.6,0.2-0.9,0.3c0,0,0,0,0,0
					c0,0,0,0,0,0c0,0,0,0,0,0c-4.8,2-7.4,7.5-5.8,12.6l5.7,18.2c1.5,4.7,6,7.6,10.7,7.2c0,0,0,0,0,0c0.7-0.1,1.5-0.2,2.2-0.4l0,0
					l41.4-12.9C709.9,404.8,713,399,711.3,393.6z M661.6,378.3l-1.2-3.9c-0.2-0.7,0.2-1.4,0.8-1.6l4-1.3l6.9-2.1l1.5-0.4
					c0.1,0,0.3-0.1,0.4-0.1c0.5,0,1,0.4,1.2,0.9l1.2,3.9L661.6,378.3z"/>
			</g>
			<path class="st39" d="M663.9,364.2l1.4,2.4c0,0-2.7,5.7,3.7,7.8c0,0,2.7,0.7,3-1.2c0.2-1.9-0.2-1.1,0.2-3.8
				c0.4-2.7-0.6-5.1-2.6-5.7l-1.6-1.5L663.9,364.2z"/>
			<path class="st42" d="M667.5,364.9c-2.6,0.5-5.4,0.3-5.4,0.3s-7.7-23.8-8.7-26c-1-2.2-22.9-27.9-22.9-27.9l9.1-22.8
				c0,0,23.7,39.5,26.1,45.1c4,9.2,5.3,29.8,5.3,29.8S669.6,364.5,667.5,364.9z"/>
		</g>
	</g>
	<g>
		<path class="st3" d="M464.4,362.2v135.6c0,1.4-1.2,2.5-2.8,2.5h-5.1c-1.5,0-2.8-1.1-2.8-2.5V362.2c0-1.4,1.2-2.5,2.8-2.5h5.1
			C463.1,359.7,464.4,360.8,464.4,362.2z"/>
		<path class="st14" d="M459.9,362.2v135.6c0,1.4-1.2,2.5-2.8,2.5h-0.6c-1.5,0-2.8-1.1-2.8-2.5V362.2c0-1.4,1.2-2.5,2.8-2.5h0.6
			C458.7,359.7,459.9,360.8,459.9,362.2z"/>
		<path class="st3" d="M566.3,362.2v135.6c0,1.4-1.2,2.5-2.8,2.5h-5.1c0,0-0.1,0-0.1,0c-1.5,0-2.7-1.2-2.7-2.5V362.2
			c0-1.4,1.2-2.5,2.7-2.5c0,0,0.1,0,0.1,0h5.1C565.1,359.7,566.3,360.8,566.3,362.2z"/>
		<path class="st14" d="M561.1,362.2v135.6c0,1.4-1.2,2.5-2.7,2.5c-1.5,0-2.7-1.2-2.7-2.5V362.2c0-1.4,1.2-2.5,2.7-2.5
			C559.9,359.7,561.1,360.9,561.1,362.2z"/>
	</g>
	<g>
		<path class="st23" d="M399.7,387.3c-0.4-1.7-2-3-3.8-3H283.8c-0.1,0-0.2,0-0.3,0H160.2c-2,0-3.7,1.3-4.2,3
			c-0.1,0.3-0.1,0.6-0.1,0.9v93.7c0,10,9,18.3,19.8,18.3h111.7c0,0,0.1,0,0.1,0h94c10.1,0,18.3-8.2,18.3-18.3v-93.7
			C399.9,387.9,399.8,387.6,399.7,387.3z"/>
		<path class="st43" d="M399.8,388.2v13L278,421.7l-122.1,20.5v-54c0-0.3,0-0.6,0.1-0.9c0.4-1.7,2-3,3.8-3H350l49.6,3
			C399.8,387.6,399.8,387.9,399.8,388.2z"/>
		<path class="st6" d="M429.5,355.6H294.9H265H143.1c-4.2,0-7.7,3.4-7.7,7.7v19.9c0,4.3,3.5,7.9,7.9,7.9H265h29.8h134.4
			c4.5,0,8.2-3.7,8.2-8.2v-19.3C437.5,359.2,433.9,355.6,429.5,355.6z"/>
	</g>
	<g>
		<path class="st18" d="M781.1,496.7c-0.1,1.1-0.3,2.1-0.8,2.5h-21.6c0.1-0.6,0.7-2.3,3.4-2.7c3.4-0.5,9.4-2.4,10.5-6.8
			c1.1-4.5,8.3,1.5,8.3,1.5S781.3,494.3,781.1,496.7z"/>
		<path class="st18" d="M800.1,499.2h-22.4c0.4-0.7,1.3-2,3.3-2.5c0.2-0.1,0.5-0.1,0.7-0.1c3.4-0.5,9.4-2.4,10.5-6.8
			c1.1-4.5,8.3,1.5,8.3,1.5S801.3,497.5,800.1,499.2z"/>
		<path class="st5" d="M790.4,378.5c0,0,0,0.8,0,2.3c-0.2,9.4-1,45.5-1.8,65.7c0,0.7-0.1,1.4-0.1,2.1c0,0.4,0,0.7,0,1.1
			c-0.5,9.8-1.8,19.3-3.1,26.9c-1.7,9.7-3.4,16.4-3.4,16.4c-6.5,1.3-10.7-1.2-10.7-1.2s-1.8-15.1-2.4-24.3c-0.2-3-1.3-13.1-2.6-25.4
			c-1-9.5-2.2-20.4-3.3-30.2c-0.1-0.5-0.1-1.1-0.2-1.6c-1.8-15.9-3.3-28.9-3.3-28.9l11.5-1.1L790.4,378.5z"/>
		<path class="st18" d="M785.4,476.6l-19.2-34.5c-1-9.5-2.2-20.4-3.3-30.2c-0.1-0.5-0.1-1.1-0.2-1.6c-1.8-15.9-3.3-28.9-3.3-28.9
			l11.5-1.1l19.5,0.4L785.4,476.6z"/>
		<path class="st5" d="M761.5,381.5c0,0,10.7,53.1,19.5,78.7c8.7,25.6,8.9,32.7,8.9,32.7s8,1.7,11.6-0.3c0,0,2-48.6-3.3-61.5
			c-3.5-8.5-6.2-26.7-5.3-33.2c0.9-6.5,1.8-19.7,1.8-19.7L761.5,381.5z"/>
		<path class="st15" d="M774.6,310.3l11.9-3.4c0,0-2-5-2.7-10.1c-0.4-2.9-0.4-5.8,0.6-8c0.1-0.1,0.1-0.3,0.2-0.4
			c0.5-0.9,0.2-1.2-0.4-1.3c-1.1-0.2-3.2,0.6-4.1,1.3c-1.4,1.1-8,4.5-8.3,4.7c0,0,0,0,0,0s0,0,0,0.1l0,0c0,0.2-0.1,0.7-0.2,1.4
			C771.2,297.8,770.9,305.2,774.6,310.3z"/>
		<path class="st23" d="M791.8,384.4c-2.5,1.8-6.5,2.4-10.9,2.4c-5.1-0.1-10.8-1.1-15.4-2.5c-2.4-0.7-4.6-1.5-6.1-2.3
			c-6.8-3.5-5.8-8.3-5.7-25.9c0.2-18,11.3-41.3,13.3-45.2c3.6-6.9,19.5-4.4,19.5-4.4c3.5,1.7,4.7,7.3,5.1,14.6
			c0.4,8.1-0.4,18.4-0.4,27.7c0,7.7,1.5,14.5,2.5,20.2C795.1,376.1,795.8,381.5,791.8,384.4z"/>
		<path class="st24" d="M793.7,368.8c-3.1,6.5-9.1,13.8-12.9,17.9c-5.1-0.1-10.8-1.1-15.4-2.5c-1.9-4.6-2.8-12.2-1-24.9
			c1.3-9.6,11.2-48.4,11.2-48.4c7.9-1,12.9,3.3,15.9,9.9c0.4,8.1-0.4,18.4-0.4,27.7C791.2,356.3,792.7,363.1,793.7,368.8z"/>
		<path class="st44" d="M790.5,399.6h-7.2v-2.2c0-3.7-3-6.7-6.7-6.7h-6c-3.7,0-6.7,3-6.7,6.7v2.2h-7.2c-2.2,0-3.9,1.8-3.9,3.9v18.4
			c0,2.2,1.8,3.9,3.9,3.9h33.9c2.2,0,3.9-1.8,3.9-3.9v-18.4C794.5,401.4,792.7,399.6,790.5,399.6z M766.5,397.3
			c0-2.2,1.8-4.1,4.1-4.1h6c2.2,0,4.1,1.8,4.1,4.1v2.2h-14.1V397.3z"/>
		<path class="st27" d="M771.5,386.1c0,0-4.2,8-2.1,11.1c2.1,3.1,9.5-0.9,10.1-2.7c0.6-1.8,0-10.4,0-10.4L771.5,386.1z"/>
		<path class="st23" d="M789.3,323.4c0,0-1.5,22-1.5,31.2c0,9.1-7.2,33.4-7.2,33.4s-4.8,0.4-6.7,0.1c-2.2-0.3-3.5-1.3-3.5-1.3
			s1.6-28.7-1.4-39.6c-3-11-3.2-33-3.2-33s1.7-4.8,11.8-3.3C789.5,312.7,789.3,323.4,789.3,323.4z"/>
		<path class="st23" d="M784.3,296.2c0,0,2.7,8.6,2.2,10.1c0,0-14.8,2-20.7,7.8c0,0,1.9-8.4,4.3-10.5
			C772.5,301.6,784.3,296.2,784.3,296.2z"/>
		<path class="st25" d="M771.3,294.6c0,0,0.1,0,0.2,0c1.3,0,9.7,0,12,2c0.1,0.1,0.2,0.1,0.2,0.2c-0.4-2.9-0.4-5.8,0.6-8
			c-0.1-0.7-0.2-1.3-0.2-1.7c-1.1-0.2-3.2,0.6-4.1,1.3c-1.4,1.1-8,4.5-8.3,4.7l0,0.1l0,0L771.3,294.6z"/>
		<path class="st15" d="M766.1,294.1c0,0,13.8,2.6,15.3-6c1.5-8.6,4.3-14.1-4.4-16.1c-8.7-2.1-11,0.9-12.2,3.7
			C763.6,278.4,762.6,293.2,766.1,294.1z"/>
		<path class="st18" d="M783.9,291.8c0,0-0.7-0.5,2.1-4.8c2.8-4.2,4.1-3.1,4.2-7.6c0-4.5,1.7-7.2-3.5-10.2c-5.2-2.9-4.4-5.7-7.5-6.3
			c-3.1-0.7-7.7,1.9-10.4,1.4c-2.7-0.5-11.1,10.4-5.7,13c0,0,2.5,0.1,4.3-1c1.8-1.1,8.2-2.2,9-0.2
			C777,278.2,781.1,290.3,783.9,291.8z"/>
	</g>
	<g>
		<path class="st18" d="M705.1,384.4c0,0,9.8-4.5,17.2-0.6c7.4,3.9,2.9,36.1-7.7,39.2l0,0C714.6,423.1,691.8,450.7,705.1,384.4z"/>
		<path class="st45" d="M687.7,388.1c-0.5-3.8,0.5-10.6,0.5-10.6s-3.3-0.2-5.2,4.2c-3.9,9.1-2.2,28.7-2,31.5c0,0-1.3,5.6,0.6,15.2
			c-0.3,0.7-0.7,1.6-0.9,1.9c0,0-0.1,0.1-0.1,0.1l0,0c-0.2,0.4-0.3,0.8,0,1.2l1.3,2c0.1,0.2,0.3,0.3,0.5,0.4l0,0
			c0.1,0,0.1,0.1,0.2,0.1l1.6,0.4l0.2-5.4c0,0,0,0,0,0C684.9,424,688.2,391.6,687.7,388.1z M683.7,429.7L683.7,429.7L683.7,429.7
			C683.7,429.7,683.7,429.7,683.7,429.7z"/>
		<path class="st18" d="M716,494.7l-1.3,4.5h-10.6C704.1,499.2,700.9,493.4,716,494.7z"/>
		<path class="st18" d="M693.1,494.7l-1.3,4.5h-10.6C681.2,499.2,678.1,493.4,693.1,494.7z"/>
		<path class="st5" d="M712.4,350.3c-1.3-2.1-3.2-2.1-5-3.9c-1.7-1.6-4.8-2.7-7.3-2.7c-8,0-14.9,4.9-13.4,13.2
			c0.5,2.6,0.1,4.7,2.2,7.8c2.7,3.9,5.9,6.9,11.1,6.9c2.8,0,5.2-0.6,7.3-2.7c1.2-1.1,2.8-1.2,3.9-2.4c2.1-2.4,1.9-5.6,2.7-8.9
			C714.6,354.6,713.7,352.4,712.4,350.3z"/>
		<path class="st45" d="M694.5,367.5c0,0,1.8,6.8-1.8,9.7l10,5.1l1.3-6.6c0,0-1.9-5.2-1.4-12.3L694.5,367.5z"/>
		<path class="st46" d="M694.2,370.9c0,0,10.2,1.2,10.4-6c0.2-7.2-4-11.9-6.9-11.8c-5.7,0.1-6.6,2.4-7.3,4.8
			C689.9,360.3,689.5,370.4,694.2,370.9z"/>
		<path class="st18" d="M684.5,425.3l20.2,1.7c0,0,2.4,35.4-10.9,68.2c0,0-1.7,0.6-6,0.6c-3.1,0-5.3-0.8-5.3-0.8L684.5,425.3z"/>
		<path class="st5" d="M715.8,427.4c0,0,6.2,24.1,1.2,68.2c0,0-2.6,0.9-6.6,0.8c-4.3,0-7.1-0.8-7.1-0.8l-6.6-57.2
			c-0.3-1.7-3.6-10.6-3.6-10.6L715.8,427.4z"/>
		<path class="st3" d="M716.3,391.6l1.3-10.8c-0.2-0.3-0.4-0.5-0.6-0.8c-2.3-2.8-11.2-4.1-13-4.3c-0.1,0.1-4.2,3.5-7.2,3.1
			c-2.5-0.3-3-1.7-2.9-3.1c-5.3,0.9-8.3,2.6-8.3,2.6c-5.4,2-6.5,19.9-6.5,19.9c0.7-0.2,4.3,0.4,5.9,0.7l-0.7,26.5
			c12.8,5.6,31.3,2,31.3,2l0-0.2l-1.2-21.2l1.2-9.7L716.3,391.6z"/>
		<path class="st35" d="M697,366.8c0,0-0.2,0.9-2.5,0.7c0,0-1.9-0.1-1.8-1.1C692.7,366.4,694.5,365.7,697,366.8z"/>
		<path class="st36" d="M708,426.5c0.9,1.1,5.2,1.5,7.8,0.7l-1.3-21.2l1.7-14.4l-1.7-0.8c0,0-7.4,5.9-6.5,10.6
			C709,406.1,706.9,425.1,708,426.5z"/>
		<path class="st3" d="M723.8,392.7c0,0-6.2,2-8.4,3.8c-0.4,0.4-0.3,0.2-0.5,0.4l-8-15.3l-1.5-2.9l-1.4-2.8l-0.1-0.2
			c0,0,0.1,0,0.3,0c0.8,0.1,2.6,0.3,4.8,0.8c1.4,0.3,2.8,0.7,4.2,1.2h0c1.6,0.6,3,1.4,3.7,2.2c0.2,0.2,0.4,0.5,0.6,0.8
			C720.2,384.4,723.8,392.7,723.8,392.7z"/>
		<path class="st5" d="M715.5,421.3c0,0-27.7-29.6-10-42.7c1-0.8,2.2-1.5,3.6-2.2c1.4,0.3,2.8,0.7,4.2,1.2c-1.4,0.4-4.2,1.4-6.3,3.9
			c-4.3,4.8-6.3,14.9,8.3,36L715.5,421.3z"/>
		<path class="st5" d="M695.2,353.2c0,0,8.7,0,6.7,6c-1.3,3.8,2.9,4.4,2.9,4.4s1.8-4.5,2-6.1c0.2-1.2-0.3-4-1.3-4.7
			C703.6,351.3,695.2,353.2,695.2,353.2z"/>
		<path class="st45" d="M723.7,392.7c-2.7,0.8-7,2.5-8.3,3.8c1.4,3.2,2.3,5.4,2.3,5.4c-1-0.5-6.4-0.9-9.1-1.1c0,0,0,0,0,0
			c-0.3,0-2.8-0.9-2.8-0.9s0-4.3-5-4.7c0,0-2.1,0-1.6,1.4c0.4,1.4,0.5,0.8,1,2.8c0.6,2,2,3.5,3.5,3.6c7.3,6.2,17.4,6.2,20.5,6.1
			c0.5,0,1-0.4,1.1-0.9C726.4,403.2,725.7,398,723.7,392.7z"/>
	</g>
	<g>
		<rect x="149.8" y="211.6" class="st11" width="95.5" height="122.2"/>
		<rect x="149.8" y="210.6" class="st23" width="95.5" height="28.7"/>
		<g>
			<path class="st3" d="M190.3,250.5h-29.4c-1.8,0-3.3,1.5-3.3,3.3v1.7c0,1.8,1.5,3.3,3.3,3.3h29.4c1.8,0,3.3-1.5,3.3-3.3v-1.7
				C193.6,252,192.1,250.5,190.3,250.5z"/>
			<path class="st3" d="M190.3,270.2h-29.4c-1.8,0-3.3,1.5-3.3,3.3v1.7c0,1.8,1.5,3.3,3.3,3.3h29.4c1.8,0,3.3-1.5,3.3-3.3v-1.7
				C193.6,271.7,192.1,270.2,190.3,270.2z"/>
			<path class="st3" d="M190.3,289.8h-29.4c-1.8,0-3.3,1.5-3.3,3.3v1.7c0,1.8,1.5,3.3,3.3,3.3h29.4c1.8,0,3.3-1.5,3.3-3.3v-1.7
				C193.6,291.3,192.1,289.8,190.3,289.8z"/>
			<path class="st3" d="M190.3,309.4h-29.4c-1.8,0-3.3,1.5-3.3,3.3v1.7c0,1.8,1.5,3.3,3.3,3.3h29.4c1.8,0,3.3-1.5,3.3-3.3v-1.7
				C193.6,310.9,192.1,309.4,190.3,309.4z"/>
			<path class="st3" d="M232.5,250.5h-29.4c-1.8,0-3.3,1.5-3.3,3.3v1.7c0,1.8,1.5,3.3,3.3,3.3h29.4c1.8,0,3.3-1.5,3.3-3.3v-1.7
				C235.8,252,234.3,250.5,232.5,250.5z"/>
			<path class="st3" d="M232.5,270.2h-29.4c-1.8,0-3.3,1.5-3.3,3.3v1.7c0,1.8,1.5,3.3,3.3,3.3h29.4c1.8,0,3.3-1.5,3.3-3.3v-1.7
				C235.8,271.7,234.3,270.2,232.5,270.2z"/>
			<path class="st3" d="M232.5,289.8h-29.4c-1.8,0-3.3,1.5-3.3,3.3v1.7c0,1.8,1.5,3.3,3.3,3.3h29.4c1.8,0,3.3-1.5,3.3-3.3v-1.7
				C235.8,291.3,234.3,289.8,232.5,289.8z"/>
			<path class="st3" d="M232.5,309.4h-29.4c-1.8,0-3.3,1.5-3.3,3.3v1.7c0,1.8,1.5,3.3,3.3,3.3h29.4c1.8,0,3.3-1.5,3.3-3.3v-1.7
				C235.8,310.9,234.3,309.4,232.5,309.4z"/>
		</g>
		<g>
			<path class="st6" d="M189.5,220.2h-28.2c-2.2,0-3.9,1.8-3.9,3.9v2c0,2.2,1.8,3.9,3.9,3.9h28.2c2.2,0,3.9-1.8,3.9-3.9v-2
				C193.4,222,191.6,220.2,189.5,220.2z"/>
			<path class="st6" d="M232.2,220.2H204c-2.2,0-3.9,1.8-3.9,3.9v2c0,2.2,1.8,3.9,3.9,3.9h28.2c2.2,0,3.9-1.8,3.9-3.9v-2
				C236.1,222,234.3,220.2,232.2,220.2z"/>
		</g>
	</g>
	<path class="st47" d="M1045.6,172.6c1.4-0.5,3.2-0.8,4.8-1l-7.5-13.4c0,0,0,0,2-0.5c2-0.5,13.8,7.7,14.9,8.4c0.9,0.5,7,0.4,9.4,0.3
		c1.6-0.4,3.4-0.9,5.3-1.4c-1-1.1-2-2.3-2-2.3s0.5-0.1,0.9,0c0.1,0,0.3,0.1,0.3,0.1l2.8,1.7c6.6-1.8,14.2-3.8,20.8-5.5
		c10.1-2.6,18.1-4.7,18.1-4.7c5.1-1.3,8.2-0.6,9.7-0.1c0.4,0.1,0.7,0.3,0.9,0.4c0,0,0,0,0,0c0.8,0.4,3.2,0.1,4,1.3
		c0.9,1.2-4.9,4.4-7.7,5.5c-1,0.4-6.2,1.8-12.9,3.6c-1.8,0.5-3.7,1-5.7,1.5l0.3,1.2c0,0-0.2,0.1-0.6,0.4c-0.6,0.3-1.7,0.9-3.4,1.3
		c-2.8,0.7-4.7,0.5-4.7,0.5l-0.1-0.4c-0.5,0-1.2,0.1-1.9,0c-0.2,0-0.3-0.1-0.4-0.2c-9.3,2.4-17.7,4.6-19.9,5.2
		c-4.1,1-13.7,1-19.1,0.9c0,0,0,0,0,0c-1.5,0-2.7-0.1-3.3-0.1c-0.1,0-0.3,0-0.3,0c-0.2,0-0.4-0.1-0.6-0.2c-0.6-0.3-0.8-1-0.8-1.5
		L1045.6,172.6z"/>
	<path class="st22" d="M1182.2,500.7H12.5c-0.4,0-0.7-0.3-0.7-0.7l0,0c0-0.4,0.3-0.7,0.7-0.7h1169.7c0.4,0,0.7,0.3,0.7,0.7l0,0
		C1182.9,500.3,1182.6,500.7,1182.2,500.7z"/>
</g>
</svg>
