<?xml version="1.0" encoding="iso-8859-1"?>
<!-- Generator: Adobe Illustrator 19.0.0, SVG Export Plug-In . SVG Version: 6.00 Build 0)  -->
<svg version="1.1" id="Capa_1" xmlns="http://www.w3.org/2000/svg" xmlns:xlink="http://www.w3.org/1999/xlink" x="0px" y="0px"
	 viewBox="0 0 512 512" style="enable-background:new 0 0 512 512;" xml:space="preserve">
<path style="fill:#F6D36C;" d="M512,393.987C512,414.429,495.429,431,474.987,431H37.013C16.571,431,0,414.429,0,393.987V118.013
	C0,97.571,16.571,81,37.013,81h437.974C495.429,81,512,97.571,512,118.013V393.987z"/>
<path style="fill:#FAEFCA;" d="M230.613,249.511L9.417,418.288C16.203,426.07,26.181,431,37.316,431H475.29
	c10.969,0,20.818-4.781,27.596-12.361L278.815,249.396C264.541,238.616,244.834,238.661,230.613,249.511z"/>
<path style="fill:#F4C758;" d="M512,118.026C512,97.584,495.429,81,474.987,81H37.013C16.571,81,0,97.584,0,118.026v8.224
	l224.764,169.762c19.769,14.931,47.063,14.864,66.758-0.163L512,127.625V118.026z"/>
<path style="fill:#F9E3A5;" d="M278.826,249.393c-14.274-10.781-33.981-10.733-48.202,0.118l-33.537,25.588l27.688,20.912
	c19.769,14.931,47.063,14.864,66.758-0.163l24.276-18.522L278.826,249.393z"/>
<path style="fill:#EDA500;" d="M281.69,262.489L502.886,93.712C496.101,85.93,486.122,81,474.987,81H37.013
	c-10.969,0-20.818,4.781-27.596,12.361l224.071,169.242C247.762,273.384,267.47,273.339,281.69,262.489z"/>
<g>
</g>
<g>
</g>
<g>
</g>
<g>
</g>
<g>
</g>
<g>
</g>
<g>
</g>
<g>
</g>
<g>
</g>
<g>
</g>
<g>
</g>
<g>
</g>
<g>
</g>
<g>
</g>
<g>
</g>
</svg>
