<svg id="Layer_1" data-name="Layer 1" xmlns="http://www.w3.org/2000/svg" viewBox="0 0 512 336.05"><defs><style>.cls-1{fill:#dc0026;}.cls-2{fill:#fefdfd;}.cls-3{fill:#00206d;}.cls-4{fill:#dc0127;}.cls-5{fill:#01216d;}</style></defs><title>eng</title><path class="cls-1" d="M278.17,223c-2.52,0-3.17-.59-3.16-3.14q.12-65.55.06-131.09H208q0,65.55.06,131.1c0,2.57-.68,3.13-3.18,3.13Q102.44,223,0,222.93v67.14q102.23,0,204.46-.09c2.89,0,3.6.68,3.59,3.58-.1,42.58,0,85.16-.14,127.75,0,2.54.7,3,3.07,3q30.47-.15,60.93,0c2.43,0,3.23-.44,3.23-3.1-.1-42.67-.05-85.35-.13-128,0-2.51.58-3.18,3.14-3.18q116.93.09,233.85.06V223Q395.09,223,278.17,223Z" transform="translate(0 -88.78)"/><path class="cls-2" d="M208,219.88q-.14-65.55-.06-131.1H185.62V190.49c-1.05.43-1.69-.31-2.37-.65Q91.62,144,0,98.21v37.53L126.32,198.9a6.7,6.7,0,0,1,2.33,1.69H126q-21.93,0-43.87,0a9.72,9.72,0,0,1-4.52-1.05L0,160.74v12.49l53.72,26.85-.09.51H0v22.34q102.44,0,204.86.08C207.36,223,208.05,222.45,208,219.88Z" transform="translate(0 -88.78)"/><path class="cls-2" d="M356.78,314.11a7.12,7.12,0,0,1-2.36-1.7H357c14.44,0,28.88,0,43.32,0a12.47,12.47,0,0,1,5.84,1.42q52.89,26.47,105.81,52.9V354.24l-28.79-14.41c-17.94-9-35.89-17.95-53.8-27.42H512V290q-116.92,0-233.85-.06c-2.56,0-3.15.67-3.14,3.18.08,42.67,0,85.35.13,128,0,2.66-.8,3.11-3.23,3.1q-30.47-.15-60.93,0c-2.37,0-3.07-.43-3.07-3,.1-42.59,0-85.17.14-127.75,0-2.9-.7-3.59-3.59-3.58q-102.22.07-204.46.09v22.34H53.63l.17.46L0,339.77v37.49q63.51-31.75,127-63.53a12.51,12.51,0,0,1,5.85-1.36c14.35.07,28.69,0,43,0h2.68l.14.46c-.77.4-1.53.82-2.3,1.21Q88.2,358.18,0,402.3v12.48L185.52,322c0,1,.09,1.61.09,2.23q0,48.76,0,97.52c0,1.85-.31,2.51-2.37,2.5q-91.63-.07-183.29,0v.6q256,0,512,0V391.73ZM501,424.22h-2.32q-99.19,0-198.38.06c-2.32,0-2.88-.53-2.88-2.86q.13-48.35.06-96.68v-2.8L501,423.73Z" transform="translate(0 -88.78)"/><path class="cls-2" d="M481.46,99q-90.48,45.27-181,90.5c-.9.45-1.81.86-3.05,1.46V88.78H275.07q0,65.54-.06,131.09c0,2.55.64,3.15,3.16,3.14q116.93-.07,233.83,0V200.59H428.65c1.51-.81,2.33-1.29,3.18-1.71L512,158.77V121.28q-78.15,39.09-156.31,78.18a10.13,10.13,0,0,1-4.77,1.16c-15.47-.05-30.93,0-46.69,0a5.39,5.39,0,0,1,2.57-1.7Q409.4,147.56,512,96.26V88.78H501.5C495,92.58,488.16,95.66,481.46,99Z" transform="translate(0 -88.78)"/><path class="cls-3" d="M183.25,189.84c.68.34,1.32,1.08,2.37.65V88.78H0v9.43Q91.62,144,183.25,189.84Z" transform="translate(0 -88.78)"/><path class="cls-3" d="M300.48,189.52q90.5-45.24,181-90.5c6.7-3.36,13.56-6.44,20-10.24H297.43V191C298.67,190.38,299.58,190,300.48,189.52Z" transform="translate(0 -88.78)"/><path class="cls-4" d="M306.8,198.89a5.39,5.39,0,0,0-2.57,1.7c15.76,0,31.22,0,46.69,0a10.13,10.13,0,0,0,4.77-1.16Q433.84,160.35,512,121.28v-25Q409.4,147.56,306.8,198.89Z" transform="translate(0 -88.78)"/><path class="cls-5" d="M431.83,198.88c-.85.42-1.67.9-3.18,1.71H512V158.77Z" transform="translate(0 -88.78)"/><path class="cls-5" d="M429.41,312.41c17.91,9.47,35.86,18.44,53.8,27.42L512,354.24V312.41Z" transform="translate(0 -88.78)"/><path class="cls-4" d="M82.16,200.62q21.93-.06,43.87,0h2.62a6.7,6.7,0,0,0-2.33-1.69L0,135.74v25l77.64,38.83A9.72,9.72,0,0,0,82.16,200.62Z" transform="translate(0 -88.78)"/><path class="cls-4" d="M406.19,313.79a12.47,12.47,0,0,0-5.84-1.42c-14.44.07-28.88,0-43.32,0h-2.61a7.12,7.12,0,0,0,2.36,1.7L512,391.73v-25Q459.1,340.25,406.19,313.79Z" transform="translate(0 -88.78)"/><path class="cls-3" d="M183.29,424.27c2.06,0,2.37-.65,2.37-2.5q-.09-48.76,0-97.52c0-.62-.05-1.24-.09-2.23L0,414.78v9.44Q91.65,424.22,183.29,424.27Z" transform="translate(0 -88.78)"/><path class="cls-3" d="M297.43,324.74q0,48.35-.06,96.68c0,2.33.56,2.86,2.88,2.86q99.18-.11,198.38-.06H501l.06-.49L297.43,321.94Z" transform="translate(0 -88.78)"/><path class="cls-4" d="M176.41,314.08c.77-.39,1.53-.81,2.3-1.21l-.14-.46h-2.68c-14.34,0-28.68,0-43,0a12.51,12.51,0,0,0-5.85,1.36Q63.52,345.52,0,377.26v25Q88.2,358.17,176.41,314.08Z" transform="translate(0 -88.78)"/><path class="cls-3" d="M53.63,200.59l.09-.51L0,173.23v27.36H53.63Z" transform="translate(0 -88.78)"/><path class="cls-3" d="M53.8,312.87l-.17-.46H0v27.36Z" transform="translate(0 -88.78)"/></svg>