<svg id="Capa_1" enable-background="new 0 0 512 512" height="512" viewBox="0 0 512 512" width="512" xmlns="http://www.w3.org/2000/svg"><g><path d="m0 136v300c0 8.291 6.709 15 15 15h30v-330h-30c-8.291 0-15 6.709-15 15z"/><path d="m167 91h-62c-16.538 0-30 13.462-30 30v330c0 16.538 13.462 30 30 30h62c16.538 0 30-13.462 30-30v-330c0-16.538-13.462-30-30-30z"/><path d="m452 46c0-8.286-6.716-15-15-15h-120c-8.284 0-15 6.714-15 15v135h150z"/><path d="m497 121h-15v75c0 8.291-6.709 15-15 15h-180c-8.291 0-15-6.709-15-15v-75h-45v330h270c8.291 0 15-6.709 15-15v-300c0-8.291-6.709-15-15-15zm-180 285c-8.284 0-15-6.716-15-15s6.716-15 15-15 15 6.716 15 15-6.716 15-15 15zm0-60c-8.284 0-15-6.716-15-15s6.716-15 15-15 15 6.716 15 15-6.716 15-15 15zm0-60c-8.284 0-15-6.716-15-15s6.716-15 15-15 15 6.716 15 15-6.716 15-15 15zm60 120c-8.284 0-15-6.716-15-15s6.716-15 15-15 15 6.716 15 15-6.716 15-15 15zm0-60c-8.284 0-15-6.716-15-15s6.716-15 15-15 15 6.716 15 15-6.716 15-15 15zm0-60c-8.284 0-15-6.716-15-15s6.716-15 15-15 15 6.716 15 15-6.716 15-15 15zm60 120c-8.284 0-15-6.716-15-15s6.716-15 15-15 15 6.716 15 15-6.716 15-15 15zm0-60c-8.284 0-15-6.716-15-15s6.716-15 15-15 15 6.716 15 15-6.716 15-15 15zm0-60c-8.284 0-15-6.716-15-15s6.716-15 15-15 15 6.716 15 15-6.716 15-15 15z"/></g></svg>