<?xml version="1.0" encoding="utf-8"?>
<!-- Generator: Adobe Illustrator 22.1.0, SVG Export Plug-In . SVG Version: 6.00 Build 0)  -->
<svg version="1.1" id="Layer_1" xmlns="http://www.w3.org/2000/svg" xmlns:xlink="http://www.w3.org/1999/xlink" x="0px" y="0px"
	 viewBox="0 0 512 512" style="enable-background:new 0 0 512 512;" xml:space="preserve">
<style type="text/css">
	.st0{fill:#FFFFFF;}
	.st1{fill:#C03A2B;}
	.st2{display:none;}
	.st3{display:inline;fill:#C03A2B;}
	.st4{display:inline;fill:#E64C3C;}
	.st5{display:inline;fill:#FFFFFF;}
</style>
<g>
	<path class="st0" d="M256,35.7c-85.7,0-155.3,71.4-155.3,159.3S170.3,354.2,256,354.2S411.3,282.8,411.3,195S341.7,35.7,256,35.7z"
		/>
	<path class="st1" d="M398.5,60.5C320-18.1,192.7-18.3,114,60.1c-0.1,0.1-0.3,0.3-0.4,0.4c-36.7,36.9-58.7,85.8-62.1,137.6
		c-1.8,28.3,2.4,56.6,12.2,83.1c9.7,26.5,25.5,51.6,47,74.5L256,510.6l145.3-154.8c21.5-22.9,37.4-48,47-74.5
		c9.9-26.5,14-54.9,12.2-83.1C457.2,146.3,435.1,97.4,398.5,60.5z M256,354.2c-85.7,0-155.3-71.4-155.3-159.3S170.3,35.7,256,35.7
		c85.7,0,155.3,71.4,155.3,159.3S341.7,354.2,256,354.2z"/>
</g>
<g id="Page-1">
	<g id="_x30_11---Maple-Location" class="st2">
		<path id="Shape" class="st3" d="M259.8,0H256C143.9,0,53,90.9,53,203c0,166,167.4,286.9,198.2,307.5c1.4,1,3.1,1.5,4.9,1.5
			c1.7,0,3.4-0.5,4.9-1.5c28.8-19.2,175.7-125.5,195.9-273.7C473.3,115.2,382.6,2.3,259.8,0L259.8,0z"/>
		<path id="Shape_1_" class="st4" d="M256,0v512c-1.7,0-3.4-0.5-4.9-1.5C220.3,489.9,53,369,53,203C53,90.9,143.9,0,256,0z"/>
		<circle id="Oval" class="st5" cx="256" cy="203" r="167.7"/>
	</g>
	<path class="st1" d="M342,328c-2.8-0.5-5.7-1-8.5-1.6c-10.1-2.3-20.2-4.5-30.2-7c-8.5-2.2-17-4.5-25.3-7.1
		c-7.4-2.2-14.6-4.3-21.8-7c-10-3.7-20-7.6-29.9-11.8c-10.9-4.5-21.2-10.2-31-16.8c-6.1-4.1-11.8-8.6-16.6-14.1
		c-5-5.7-9.1-12-10.3-19.7c-0.2-1.3-1-1.8-2.2-2.2c-13-4.1-25.7-9.2-37.8-15.6c-6.1-3.2-12-6.9-17.2-11.6c-3.1-2.8-5.7-6-7.5-9.7
		c-2.3-4.7-1.7-9.4,0.8-13.8c3.7-6.8,9.9-11,16.3-14.8c9.9-6.1,20.6-10.2,31.6-13.9c4.8-1.7,9.7-3,14.5-4.6c0.6-0.2,1.4-1,1.5-1.6
		c1.1-5.4,3.5-10.2,6.8-14.5c7.5-10.1,17.3-17.5,27.9-23.7c6.8-4,13.6-7.7,20.7-11.1c8.5-3.9,17.3-7.5,26-10.9
		c7.4-2.8,14.7-5.5,22.3-7.9c18.5-6.1,37.3-11.2,56.2-15.7c8.2-2,16.6-3.5,24.8-5.3c0.5-0.1,1-0.3,1.6-0.2
		c-5.1,2.2-10.1,4.2-15.2,6.5c-3.6,1.6-7.4,3.1-11,4.8c-7.8,3.7-15.8,7.3-23.4,11.4c-10.2,5.5-20.4,11.2-30.3,17.4
		c-7.8,4.9-15.4,10.2-22.6,16c-7.6,6.1-14.5,12.8-19.9,21.2c-4.2,6.6-6.9,13.6-6.1,21.5c0.5,4.9,2.3,9.5,5,13.8
		c39.6-16.9,81.1-27.9,123.3-36.6c-18.4,7.6-36.6,15.8-54.1,25.1c-17.7,9.4-34.8,19.5-50.4,32.8c2.6,2.2,5,4.3,7.6,6.1
		c9.2,6.2,18.3,12.7,27.9,18.3c10.9,6.3,22.2,11.8,33.4,17.4c7.5,3.6,15.1,6.8,22.7,10.2c0.1,0,0.2,0.2,0.5,0.6
		c-37.9-7.6-74.9-17.2-110.7-32c-2.5,3.7-4.2,7.8-5.1,12.4c-1.8,9.6,1.5,18,7.1,25.6c3.1,4.2,6.6,8.4,10.5,12
		c6,5.5,12.4,10.7,18.9,15.6c9.8,7.2,20.1,13.5,31,19c11.6,5.9,23.1,11.6,34.8,17.3C333,324.3,337.5,326,342,328
		C342,327.9,342,328,342,328z M167.6,163c-8.1,5.3-15.4,10.9-21,18.4c-7.3,9.8-7.6,19-1.9,29.2c4.7,8.2,11.7,14.6,18.6,20.9
		c1.4,1.2,2.8,2.2,4.3,3.3c2.3-16.3,13.3-26,25.2-35.3C180.6,190,169.5,179.8,167.6,163z"/>
</g>
</svg>
