<?xml version="1.0" encoding="iso-8859-1"?>
<!-- Generator: Adobe Illustrator 19.0.0, SVG Export Plug-In . SVG Version: 6.00 Build 0)  -->
<svg version="1.1" id="Capa_1" xmlns="http://www.w3.org/2000/svg" xmlns:xlink="http://www.w3.org/1999/xlink" x="0px" y="0px"
	 viewBox="0 0 512 512" style="enable-background:new 0 0 512 512;" xml:space="preserve">
<g>
	<g>
		<path style="fill:#35495E;" d="M26.483,397.241h52.966v26.483c0,9.751-7.904,17.655-17.655,17.655H44.138
			c-9.751,0-17.655-7.905-17.655-17.655V397.241z"/>
		<path style="fill:#35495E;" d="M291.31,397.241h52.966v26.483c0,9.751-7.904,17.655-17.655,17.655h-17.655
			c-9.751,0-17.655-7.905-17.655-17.655V397.241z"/>
	</g>
	<path style="fill:#7F8C8D;" d="M330.77,158.897H17.655C7.916,158.868,0.029,150.98,0,141.241V88.276
		c0.029-9.739,7.916-17.627,17.655-17.655h335.448c9.739,0.029,17.627,7.916,17.655,17.655v26.483"/>
	<g>
		<path style="fill:#65DDB9;" d="M52.966,123.586h-8.828c-4.875,0-8.828-3.952-8.828-8.828s3.952-8.828,8.828-8.828h8.828
			c4.875,0,8.828,3.952,8.828,8.828S57.841,123.586,52.966,123.586z"/>
		<path style="fill:#65DDB9;" d="M97.103,123.586h-8.828c-4.875,0-8.828-3.952-8.828-8.828s3.952-8.828,8.828-8.828h8.828
			c4.875,0,8.828,3.952,8.828,8.828S101.979,123.586,97.103,123.586z"/>
		<path style="fill:#65DDB9;" d="M141.241,123.586h-8.828c-4.875,0-8.828-3.952-8.828-8.828s3.952-8.828,8.828-8.828h8.828
			c4.875,0,8.828,3.952,8.828,8.828S146.117,123.586,141.241,123.586z"/>
	</g>
	<path style="fill:#67B9CC;" d="M300.138,123.586h-35.31c-4.875,0-8.828-3.952-8.828-8.828s3.952-8.828,8.828-8.828h35.31
		c4.875,0,8.828,3.952,8.828,8.828S305.013,123.586,300.138,123.586z"/>
	<polyline style="fill:#35495E;" points="308.436,194.207 61.793,194.207 26.483,158.897 330.77,158.897 	"/>
	<path style="fill:#7F8C8D;" d="M252.822,282.483H17.655C7.916,282.454,0.029,274.566,0,264.828v-52.966
		c0.029-9.739,7.916-17.627,17.655-17.655h290.781"/>
	<g>
		<path style="fill:#65DDB9;" d="M52.966,247.172h-8.828c-4.875,0-8.828-3.952-8.828-8.828s3.952-8.828,8.828-8.828h8.828
			c4.875,0,8.828,3.952,8.828,8.828S57.841,247.172,52.966,247.172z"/>
		<path style="fill:#65DDB9;" d="M97.103,247.172h-8.828c-4.875,0-8.828-3.952-8.828-8.828s3.952-8.828,8.828-8.828h8.828
			c4.875,0,8.828,3.952,8.828,8.828S101.979,247.172,97.103,247.172z"/>
		<path style="fill:#65DDB9;" d="M141.241,247.172h-8.828c-4.875,0-8.828-3.952-8.828-8.828s3.952-8.828,8.828-8.828h8.828
			c4.875,0,8.828,3.952,8.828,8.828S146.117,247.172,141.241,247.172z"/>
	</g>
	<polyline style="fill:#35495E;" points="252.822,282.483 252.734,282.483 26.483,282.483 61.793,317.793 231.283,317.793 	"/>
	<path style="fill:#7F8C8D;" d="M231.283,317.793H17.655C7.916,317.822,0.029,325.709,0,335.448v52.966
		c0.029,9.739,7.916,17.627,17.655,17.655h335.448c9.739-0.029,17.627-7.916,17.655-17.655v-35.31"/>
	<g>
		<path style="fill:#65DDB9;" d="M52.966,370.759h-8.828c-4.875,0-8.828-3.952-8.828-8.828s3.952-8.828,8.828-8.828h8.828
			c4.875,0,8.828,3.952,8.828,8.828S57.841,370.759,52.966,370.759z"/>
		<path style="fill:#65DDB9;" d="M97.103,370.759h-8.828c-4.875,0-8.828-3.952-8.828-8.828s3.952-8.828,8.828-8.828h8.828
			c4.875,0,8.828,3.952,8.828,8.828S101.979,370.759,97.103,370.759z"/>
		<path style="fill:#65DDB9;" d="M141.241,370.759h-8.828c-4.875,0-8.828-3.952-8.828-8.828s3.952-8.828,8.828-8.828h8.828
			c4.875,0,8.828,3.952,8.828,8.828S146.117,370.759,141.241,370.759z"/>
	</g>
	<path style="fill:#F0C419;" d="M488.733,353.103H252.784c-18.791,0-29.804-23.45-19.028-40.516l117.975-186.845
		c3.926-6.797,11.179-10.983,19.028-10.983c7.849,0,15.102,4.187,19.028,10.983l117.974,186.845
		C518.537,329.654,507.524,353.103,488.733,353.103z"/>
	<g>
		<path style="fill:#2C3E50;" d="M370.759,273.655c-2.342,0.001-4.588-0.928-6.244-2.584c-1.656-1.656-2.585-3.902-2.584-6.244
			v-79.448c0-4.875,3.952-8.828,8.828-8.828s8.828,3.952,8.828,8.828v79.448c0.001,2.342-0.928,4.588-2.584,6.244
			C375.346,272.727,373.1,273.657,370.759,273.655z"/>
		<path style="fill:#2C3E50;" d="M370.759,308.966c-1.153-0.014-2.293-0.254-3.353-0.707c-1.07-0.447-2.056-1.074-2.914-1.854
			c-0.778-0.859-1.405-1.845-1.854-2.914c-0.943-2.136-0.943-4.571,0-6.707c0.447-1.07,1.074-2.056,1.854-2.914
			c0.418-0.379,0.859-0.733,1.319-1.06c0.493-0.336,1.03-0.603,1.595-0.793c0.5-0.255,1.034-0.435,1.586-0.535
			c2.908-0.577,5.914,0.316,8.035,2.388c0.78,0.858,1.407,1.844,1.854,2.914c0.943,2.136,0.943,4.571,0,6.707
			c-0.804,2.217-2.55,3.963-4.767,4.767C373.052,308.711,371.912,308.951,370.759,308.966z"/>
	</g>
</g>
<g>
</g>
<g>
</g>
<g>
</g>
<g>
</g>
<g>
</g>
<g>
</g>
<g>
</g>
<g>
</g>
<g>
</g>
<g>
</g>
<g>
</g>
<g>
</g>
<g>
</g>
<g>
</g>
<g>
</g>
</svg>
