<?xml version="1.0" encoding="utf-8"?>
<!-- Generator: Adobe Illustrator 22.1.0, SVG Export Plug-In . SVG Version: 6.00 Build 0)  -->
<svg version="1.1" id="Capa_1" xmlns="http://www.w3.org/2000/svg" xmlns:xlink="http://www.w3.org/1999/xlink" x="0px" y="0px"
	 viewBox="0 0 512 512" style="enable-background:new 0 0 512 512;" xml:space="preserve">
<style type="text/css">
	.st0{fill:#007413;}
	.st1{fill:#FFFFFF;}
	.st2{font-family:'Arial-Black';}
	.st3{font-size:146px;}
</style>
<g>
	<g>
		<g>
			<path class="st0" d="M136,0c-16.6,0-30,13.4-30,30v61c0,16.6,13.4,30,30,30s30-13.4,30-30V30C166,13.4,152.6,0,136,0z"/>
		</g>
	</g>
	<g>
		<g>
			<path class="st0" d="M376,0c-16.6,0-30,13.4-30,30v61c0,16.6,13.4,30,30,30s30-13.4,30-30V30C406,13.4,392.6,0,376,0z"/>
		</g>
	</g>
	<g>
		<g>
			<path class="st0" d="M436,61v30c0,33.1-26.9,60-60,60s-60-26.9-60-60V61H196v30c0,33.1-26.9,60-60,60s-60-26.9-60-60V61
				c-24.8,0-45,20.2-45,45v75c158.5,0,292.2,0,450,0v-75C481,81.2,460.8,61,436,61z"/>
		</g>
	</g>
	<path class="st0" d="M31,211v256c0,24.8,20.2,45,45,45h360c24.8,0,45-20.2,45-45V211C326.3,211,191.1,211,31,211z"/>
</g>
<text transform="matrix(1 0 0 1 81.6626 395.0127)" class="st1 st2 st3">THU</text>
</svg>
